<?xml version="1.0" standalone="no"?>
<!DOCTYPE svg PUBLIC "-//W3C//DTD SVG 20010904//EN"
 "http://www.w3.org/TR/2001/REC-SVG-20010904/DTD/svg10.dtd">
<svg version="1.0" xmlns="http://www.w3.org/2000/svg"
 width="1024.000000pt" height="1024.000000pt" viewBox="0 0 1024.000000 1024.000000"
 preserveAspectRatio="xMidYMid meet">

<g transform="translate(0.000000,1024.000000) scale(0.100000,-0.100000)"
fill="#000000" stroke="none">
<path d="M4735 9809 c-456 -35 -869 -125 -1288 -278 -433 -159 -842 -377
-1237 -660 -148 -106 -176 -129 -345 -282 -478 -434 -799 -856 -1091 -1433
-275 -541 -417 -1026 -496 -1681 -29 -243 -31 -689 -5 -905 46 -369 125 -727
224 -1013 91 -262 264 -632 398 -852 102 -165 125 -208 125 -230 0 -11 7 -31
16 -44 16 -22 16 -25 0 -51 -20 -35 -20 -63 0 -101 14 -28 14 -32 0 -48 -20
-22 -21 -80 0 -109 14 -20 14 -24 0 -44 -20 -29 -20 -77 -1 -106 14 -19 14
-24 0 -51 -19 -38 -19 -71 1 -99 12 -18 13 -26 4 -37 -7 -8 -11 -36 -10 -62 0
-26 0 -64 -1 -83 -3 -36 -3 -119 -1 -180 1 -19 1 -57 0 -85 0 -27 2 -61 6 -75
4 -17 1 -32 -11 -47 -18 -22 -19 -22 -63 -6 -38 15 -84 17 -280 18 -256 0
-307 -8 -377 -61 l-33 -25 0 -112 c0 -130 9 -154 65 -182 39 -20 60 -20 1379
-20 1063 0 1340 3 1343 13 7 18 12 16 132 -39 l110 -51 3 -148 c3 -132 5 -152
24 -176 34 -46 67 -65 130 -74 32 -4 786 -8 1674 -7 1793 2 1644 -4 1704 70
l31 39 3 148 4 148 106 48 c59 26 136 63 172 84 36 20 117 65 180 100 63 35
155 89 204 122 49 32 98 61 110 64 11 2 73 3 136 2 112 -3 115 -4 118 -27 2
-12 1 -34 -2 -47 -6 -24 -8 -24 -120 -24 -95 0 -115 -3 -129 -17 -27 -31 -30
-68 -8 -117 l20 -46 -208 0 c-220 0 -238 -4 -229 -47 3 -17 63 -17 1303 -14
1356 3 1326 2 1376 43 26 21 52 79 53 120 1 54 -21 72 -97 78 l-62 5 -5 430
c-6 474 -3 456 -70 498 -33 21 -47 22 -307 25 l-273 3 0 137 c1 253 1 250 139
500 136 245 201 385 271 577 l47 130 40 8 c22 4 51 19 64 33 22 24 24 34 24
132 0 100 -2 110 -28 150 -20 32 -24 42 -12 42 8 0 29 13 47 29 33 29 33 30
36 134 3 85 1 107 -12 120 -21 21 -20 38 8 208 61 362 71 466 71 784 0 313 -8
421 -50 697 -40 254 -172 759 -209 796 -21 21 -56 6 -56 -24 0 -13 20 -91 44
-172 81 -272 136 -539 173 -842 24 -201 24 -691 0 -870 -31 -230 -59 -395 -66
-403 -5 -4 -22 3 -38 17 -64 54 -312 82 -633 73 -265 -8 -357 -30 -415 -99
-23 -27 -26 -39 -22 -78 2 -25 7 -52 11 -60 4 -10 -5 -21 -31 -35 -43 -23 -51
-43 -52 -138 -1 -63 1 -71 29 -99 25 -24 30 -38 30 -77 0 -40 -4 -50 -24 -60
-13 -7 -30 -24 -37 -38 -19 -35 -18 -165 1 -188 29 -35 100 -55 229 -66 135
-11 694 -7 750 6 33 8 34 7 27 -21 -27 -107 -190 -457 -315 -672 l-83 -142
-27 19 c-27 20 -132 51 -170 51 -26 0 -26 10 -2 58 27 55 44 137 36 179 -16
87 -94 187 -169 218 -122 50 -274 6 -345 -102 -49 -73 -66 -145 -53 -222 6
-36 20 -77 31 -92 l20 -27 -80 -12 c-88 -12 -152 -36 -186 -69 -27 -25 -38
-93 -29 -170 8 -67 8 -163 0 -248 l-6 -62 -47 -6 c-86 -12 -124 -28 -148 -64
-13 -19 -23 -44 -23 -56 l0 -23 -288 -3 -289 -4 -49 -30 c-30 -19 -60 -49 -79
-79 l-30 -49 -3 -187 c-4 -219 3 -254 60 -316 44 -48 108 -74 182 -74 l41 0
-25 -20 c-14 -11 -29 -20 -33 -20 -5 0 -21 -8 -35 -19 -59 -41 -423 -227 -457
-232 -19 -4 -20 1 -20 106 0 85 -4 117 -17 142 -19 33 -66 67 -110 78 l-26 7
-4 185 -3 185 -28 24 c-17 14 -47 26 -77 30 l-50 7 0 181 0 182 72 35 c184 88
312 179 787 557 391 313 492 404 546 495 58 101 76 174 86 370 20 390 29 658
36 1053 l6 410 -25 55 c-29 61 -83 119 -137 146 -27 13 -59 18 -126 18 -78 0
-98 -4 -147 -28 -65 -32 -156 -125 -192 -195 -55 -110 -79 -300 -54 -428 13
-67 13 -76 -12 -190 -42 -191 -35 -175 -71 -162 -17 6 -60 8 -95 5 l-64 -5 6
112 c6 96 11 118 36 162 34 61 36 116 7 178 -39 84 -141 126 -222 93 l-37 -16
0 50 c0 36 8 65 30 106 34 64 37 90 14 156 -27 81 -97 121 -186 107 -56 -8
-93 -31 -118 -73 -40 -65 -38 -138 5 -202 l25 -36 -2 -237 -3 -237 -84 0 -83
0 7 122 c5 99 4 127 -9 151 -23 44 -60 64 -114 61 l-47 -3 0 624 0 625 381 3
381 2 91 -89 c75 -74 107 -98 184 -135 51 -25 120 -53 153 -61 77 -20 314 -38
383 -30 l52 6 -2 607 -3 607 -38 3 c-29 2 -42 -2 -52 -15 -9 -12 -17 -14 -23
-8 -5 6 -42 51 -83 100 -112 136 -364 429 -539 625 -85 96 -196 222 -245 280
-49 58 -93 107 -96 110 -3 3 -32 37 -64 75 -70 83 -133 153 -196 216 -52 52
-112 74 -199 72 -30 -1 -228 -5 -440 -10 -339 -8 -390 -11 -428 -27 -59 -26
-127 -104 -149 -173 l-18 -57 -109 -48 c-135 -59 -160 -80 -153 -129 7 -56 37
-109 89 -162 72 -73 123 -92 238 -92 82 0 105 4 164 29 l69 29 230 -9 231 -9
19 -32 18 -32 -238 2 -238 2 -51 -27 c-62 -33 -109 -84 -142 -156 -20 -45 -24
-65 -20 -125 4 -90 34 -154 103 -222 89 -89 204 -111 590 -115 66 0 119 -6
132 -13 12 -7 40 -39 62 -72 59 -90 157 -222 214 -290 l49 -60 -33 -7 c-19 -4
-89 -7 -156 -6 l-123 1 0 77 c0 94 -20 130 -95 170 -47 25 -180 60 -283 75
-100 13 -394 35 -483 35 l-97 0 34 78 c76 176 49 330 -82 471 -38 41 -77 71
-122 93 -63 31 -72 33 -177 33 -91 -1 -120 -5 -168 -24 -84 -33 -166 -113
-213 -208 -35 -69 -39 -85 -42 -172 -4 -94 8 -154 52 -253 7 -17 0 -18 -90
-18 -108 0 -333 -20 -513 -45 -147 -21 -241 -56 -298 -111 -22 -22 -33 -64
-33 -128 l0 -63 -47 -7 c-40 -5 -263 3 -263 9 0 2 44 61 98 133 53 71 117 161
142 200 25 38 54 75 65 83 14 9 86 15 245 21 124 4 254 12 289 18 215 36 351
238 282 420 -25 66 -98 153 -155 183 -40 21 -49 22 -285 19 l-243 -4 26 34 25
34 223 12 c222 13 224 13 273 -9 131 -58 246 -65 340 -20 67 31 135 95 161
150 10 20 18 58 18 85 1 43 -3 51 -34 77 -19 16 -39 29 -45 29 -23 0 -180 69
-187 82 -4 7 -10 30 -13 50 -9 56 -62 118 -130 153 l-59 30 -345 7 c-190 4
-383 10 -429 14 -103 8 -162 -6 -223 -53 -26 -19 -127 -130 -225 -246 -163
-191 -435 -510 -509 -597 -17 -19 -51 -57 -76 -85 -25 -27 -92 -106 -149 -175
-102 -123 -209 -247 -263 -304 -25 -27 -28 -28 -45 -13 -26 24 -79 22 -92 -2
-6 -13 -10 -222 -10 -610 l0 -590 57 -7 c84 -10 293 4 379 26 87 22 200 77
259 125 22 18 69 62 104 99 l65 66 388 0 388 0 0 -655 0 -655 -29 0 c-16 0
-42 -3 -59 -6 l-30 -6 5 46 c7 58 -16 122 -58 162 -28 27 -36 29 -103 29 -64
0 -77 -3 -108 -27 -71 -55 -89 -180 -36 -250 22 -29 25 -44 26 -119 l1 -86
-67 -6 c-37 -2 -75 -8 -84 -12 -16 -6 -18 1 -18 85 0 50 5 111 11 136 24 95
-31 174 -120 174 -99 0 -160 -86 -131 -183 12 -40 15 -299 4 -343 -5 -19 -14
-22 -77 -26 -40 -3 -79 -8 -88 -12 -14 -6 -19 4 -29 61 -7 37 -21 105 -31 149
-16 68 -18 93 -9 150 41 285 -54 530 -239 621 -48 24 -68 28 -141 28 -98 0
-155 -22 -216 -83 -73 -72 -76 -89 -75 -400 1 -369 29 -1270 41 -1355 29 -193
107 -292 436 -556 98 -79 226 -183 284 -231 132 -109 459 -353 537 -401 32
-19 100 -55 152 -79 l93 -44 -6 -45 c-3 -24 -6 -103 -6 -176 l0 -132 -45 -6
c-49 -7 -89 -28 -102 -55 -4 -9 -10 -97 -13 -195 l-5 -179 -39 -13 c-52 -18
-94 -61 -107 -109 -7 -25 -8 -74 -4 -128 l7 -87 -28 8 c-40 12 -117 47 -349
156 -55 26 -118 55 -140 65 -57 25 -69 42 -61 92 6 42 38 97 125 218 56 78 84
173 84 285 0 106 -17 163 -76 250 -101 151 -228 213 -413 202 -256 -15 -429
-206 -427 -472 0 -38 8 -96 17 -128 17 -59 70 -151 102 -177 9 -8 33 -40 53
-70 35 -54 36 -57 34 -147 -2 -56 1 -94 8 -98 7 -5 6 -11 -2 -21 -11 -13 -9
-44 6 -92 l7 -22 -176 0 c-97 0 -176 3 -176 6 0 3 5 14 11 25 14 27 13 137 -1
154 -8 9 -8 20 -2 32 10 19 16 62 14 100 -1 12 -11 24 -23 28 l-21 7 21 15
c28 19 31 116 4 132 -13 8 -15 13 -6 19 33 22 44 127 18 188 -11 28 -12 39 -3
54 9 15 10 30 1 61 -8 32 -8 47 3 68 18 34 18 59 -1 95 -9 18 -12 33 -6 40 5
6 12 29 15 52 6 32 3 45 -12 64 -18 22 -18 24 0 59 20 39 16 88 -8 107 -13 10
-13 12 1 18 22 8 21 121 -1 130 -16 6 -16 8 0 24 19 21 22 93 5 124 -8 15 -8
22 1 28 8 5 10 26 6 66 -3 33 -5 66 -5 74 0 8 3 68 5 132 3 65 1 125 -4 134
-6 10 -4 31 5 57 17 48 10 90 -24 135 -56 74 -171 105 -403 106 -246 1 -390
-39 -448 -124 -20 -30 -23 -42 -16 -80 9 -55 9 -82 -1 -192 -7 -73 -5 -91 9
-112 17 -26 20 -68 8 -99 -9 -21 -83 97 -191 303 -219 421 -344 785 -435 1270
-126 668 -79 1408 135 2123 83 278 183 521 331 807 234 450 490 809 805 1128
351 355 645 580 1085 831 647 368 1416 587 2138 608 571 16 1196 -81 1705
-265 562 -203 973 -442 1465 -851 209 -174 410 -379 673 -689 43 -51 82 -92
87 -92 5 0 16 10 24 21 19 27 9 49 -61 135 -235 292 -492 545 -804 794 -421
336 -827 565 -1319 744 -247 90 -478 152 -810 215 -286 55 -824 84 -1125 60z
m-850 -1648 c134 -48 125 -47 125 -17 l0 26 88 0 c48 1 128 3 178 5 186 9 294
-19 324 -84 15 -34 6 -37 -48 -17 -99 39 -145 46 -266 44 -102 -3 -120 -6
-130 -21 -21 -34 16 -47 132 -47 115 0 175 -16 339 -89 48 -21 122 -53 164
-70 42 -18 84 -38 95 -45 18 -13 18 -15 -1 -55 -40 -89 -142 -148 -238 -138
-68 7 -224 61 -252 87 -27 26 -39 25 -57 -2 -15 -23 -17 -23 -284 -23 l-269 0
-3 63 c-3 62 -3 63 -30 60 -24 -3 -28 -8 -34 -51 -7 -54 -11 -61 -111 -200
-38 -54 -67 -100 -65 -103 3 -2 185 -4 404 -4 l399 0 51 -24 c82 -38 128 -110
127 -201 -1 -104 -50 -171 -163 -224 -52 -24 -68 -26 -280 -32 -124 -4 -323
-8 -442 -8 -162 -1 -219 -4 -225 -13 -4 -7 -8 -36 -9 -64 -4 -107 -97 -249
-230 -348 -41 -31 -74 -59 -74 -63 0 -9 31 -31 82 -58 86 -45 154 -55 390 -55
l218 0 -4 -112 c-2 -62 -5 -152 -5 -200 l-1 -88 -370 0 c-203 0 -370 2 -370 4
0 2 6 22 14 44 13 36 20 89 17 134 -1 21 -31 52 -41 41 -4 -4 -15 -35 -25 -67
-40 -140 -120 -259 -229 -338 -119 -87 -224 -119 -433 -132 l-103 -7 0 505 0
505 22 3 c23 3 91 76 316 343 75 88 226 264 337 390 110 127 225 259 255 295
30 36 102 119 160 186 58 66 133 155 168 198 35 43 78 84 95 92 54 25 186 13
292 -25z m2673 28 c31 -11 130 -118 472 -509 80 -92 233 -267 340 -390 107
-123 269 -309 359 -414 90 -105 172 -192 182 -194 18 -3 19 -23 19 -504 l0
-501 -127 6 c-217 9 -363 68 -486 196 -77 80 -107 131 -142 236 -14 44 -28 86
-31 94 -7 22 -43 -16 -50 -55 -5 -27 10 -97 32 -152 5 -10 -69 -12 -363 -10
l-368 3 -3 198 -2 197 213 0 c157 0 229 4 272 15 71 18 190 75 190 92 0 6 -27
31 -61 56 -148 109 -229 230 -242 365 l-7 67 -345 7 c-524 10 -549 11 -612 40
-119 55 -174 137 -165 247 6 83 41 136 116 174 l55 27 409 0 409 0 -20 33
c-10 17 -45 73 -76 122 -32 50 -64 116 -73 147 -11 39 -22 60 -35 64 -28 9
-32 0 -33 -69 l0 -62 -268 -3 -268 -2 -17 30 c-20 35 -26 37 -44 11 -29 -40
-183 -94 -275 -94 -85 -1 -163 39 -210 107 -19 27 -32 56 -31 65 2 9 92 55
233 118 l230 102 136 1 c149 0 172 8 149 49 -10 20 -19 21 -153 21 -137 -1
-145 -2 -227 -34 -47 -18 -87 -29 -89 -24 -4 13 28 57 61 81 35 26 132 36 361
37 l197 0 0 -30 c0 -36 0 -36 70 -8 141 55 250 71 318 47z m-2698 -566 c0 -3
-11 -21 -26 -40 -23 -30 -29 -33 -80 -33 l-54 0 19 38 c19 36 20 37 80 39 34
1 61 -1 61 -4z m2594 -30 c14 -20 24 -38 23 -39 -1 0 -28 -4 -59 -7 l-57 -5
-23 36 c-12 20 -24 40 -26 45 -2 4 24 7 57 7 58 0 61 -1 85 -37z m-1230 -199
c77 -38 135 -90 171 -155 28 -50 30 -61 30 -159 0 -127 -17 -170 -107 -266
-75 -80 -121 -99 -238 -99 -76 0 -91 4 -146 32 -126 66 -198 183 -198 328 -1
70 3 88 32 150 40 84 71 118 137 153 120 61 217 66 319 16z m-1611 -576 c-75
-122 -158 -232 -221 -290 -28 -27 -53 -48 -56 -48 -12 0 -86 33 -86 38 0 3 26
29 58 58 91 82 182 240 182 316 0 16 9 18 90 18 l90 0 -57 -92z m3077 21 c29
-89 99 -198 173 -267 32 -29 57 -55 57 -57 0 -6 -63 -25 -86 -25 -41 0 -197
190 -313 383 l-23 37 85 0 84 0 23 -71z m-1870 -109 c21 -16 22 -20 7 -20 -10
0 -95 -5 -190 -10 -336 -21 -598 -54 -674 -85 -121 -51 104 -115 477 -136 246
-14 1069 -14 1295 0 287 18 469 53 506 97 19 23 -79 59 -209 78 -100 14 -611
59 -669 58 -27 0 -29 10 -8 28 37 30 612 -10 785 -55 98 -25 170 -69 170 -103
0 -29 -57 -70 -126 -91 -193 -56 -308 -63 -1094 -66 -711 -2 -835 4 -1033 49
-117 27 -159 47 -178 83 -18 33 4 72 53 96 92 45 454 94 708 96 139 0 158 -1
180 -19z m-300 -141 c58 -5 263 -13 455 -16 341 -5 525 1 773 29 56 6 106 8
109 4 18 -18 -18 -42 -78 -53 -190 -34 -838 -44 -1194 -19 -203 15 -267 29
-273 60 -4 17 1 18 50 12 29 -4 100 -11 158 -17z m-543 -172 c2 -2 2 -671 1
-1486 l-3 -1481 -33 29 -33 30 2 398 c1 219 3 401 6 406 2 4 4 121 3 260 -1
138 -3 614 -5 1056 l-4 803 31 -6 c17 -3 33 -8 35 -9z m1167 -51 c303 1 618 4
701 8 l152 7 2 -1599 2 -1600 -78 -6 c-173 -13 -1319 -18 -1528 -7 -115 7
-211 14 -214 17 -4 4 -5 1475 -2 2942 l1 253 208 -8 c114 -4 454 -7 756 -7z
m1113 -253 c-2 -32 -3 -8 -3 52 0 61 1 87 3 58 2 -29 2 -78 0 -110z m-60 15
c-2 -24 -4 -7 -4 37 0 44 2 63 4 43 2 -21 2 -57 0 -80z m20 50 c-2 -13 -4 -3
-4 22 0 25 2 35 4 23 2 -13 2 -33 0 -45z m-2160 -380 c-1 -68 -3 -13 -3 122 0
135 2 190 3 123 2 -68 2 -178 0 -245z m2042 245 c-1 -21 0 -76 2 -123 l3 -85
6 100 6 100 2 -106 c2 -81 -1 -109 -12 -118 -12 -10 -15 5 -18 101 -3 112 0
168 9 168 3 0 4 -17 2 -37z m139 -28 c0 -16 -2 -15 -8 5 -4 14 -8 34 -8 45 0
16 2 15 8 -5 4 -14 8 -34 8 -45z m19 -77 c-2 -24 -4 -7 -4 37 0 44 2 63 4 43
2 -21 2 -57 0 -80z m-38 -177 c1 -35 4 -62 7 -58 3 3 6 35 5 71 -1 52 2 66 14
66 18 0 18 -32 1 -150 -9 -59 -14 -74 -16 -50 -2 29 -3 31 -8 10 -4 -24 -5
-24 -13 -5 -6 13 -8 -16 -5 -77 3 -56 0 -98 -5 -98 -11 0 -12 283 -2 396 l8
79 6 -60 c4 -33 7 -89 8 -124z m13 123 c2 -19 0 -37 -4 -40 -4 -3 -8 13 -8 35
0 51 6 53 12 5z m-2 -334 c5 0 6 -25 3 -55 -4 -37 -2 -55 5 -55 7 0 12 31 14
83 2 45 3 -141 3 -413 0 -272 -1 -481 -3 -465 -1 17 -5 50 -9 75 l-7 45 -7
-60 c-5 -40 -6 -14 -5 78 1 76 -2 130 -6 120 -5 -10 -5 5 -1 32 13 89 8 336
-7 345 -11 7 -11 25 -2 103 7 52 10 121 8 154 -2 32 -2 48 1 36 2 -13 8 -23
13 -23z m-133 -82 c-2 -13 -4 -5 -4 17 -1 22 1 32 4 23 2 -10 2 -28 0 -40z
m-2040 -310 c-2 -24 -4 -5 -4 42 0 47 2 66 4 43 2 -24 2 -62 0 -85z m2160
-100 c-2 -13 -4 -3 -4 22 0 25 2 35 4 23 2 -13 2 -33 0 -45z m-3747 1 c159
-72 237 -295 190 -546 -11 -62 -11 -79 3 -135 9 -34 39 -169 67 -298 28 -129
53 -243 56 -253 5 -16 13 -18 53 -12 27 4 100 0 167 -9 374 -49 653 -175 871
-394 137 -136 220 -262 334 -507 129 -277 149 -398 149 -942 l0 -313 -325 0
-325 0 -1 123 c-1 67 -4 164 -8 216 l-6 93 -86 38 c-178 76 -286 149 -614 412
-392 316 -561 452 -597 484 -99 87 -169 208 -187 324 -10 63 -23 376 -37 888
l-7 252 84 0 c110 0 152 13 184 54 25 33 25 34 23 221 l-3 188 -28 21 c-21 15
-30 18 -36 8 -4 -6 -8 -98 -9 -203 -1 -104 -4 -194 -7 -200 -4 -5 -51 -9 -106
-9 l-99 0 -1 143 c-1 250 1 269 44 316 56 60 172 79 257 40z m5451 -14 c80
-56 83 -69 81 -332 l-2 -153 -99 0 c-84 0 -100 3 -107 18 -4 9 -10 104 -12
210 -4 180 -5 192 -23 192 -10 0 -27 -12 -36 -27 -15 -23 -18 -51 -18 -198 0
-245 15 -267 192 -273 l104 -4 -6 -187 c-27 -921 -30 -965 -69 -1061 -54 -133
-91 -167 -761 -703 -293 -234 -369 -286 -542 -372 l-153 -75 0 -215 0 -215
-331 0 -332 0 6 423 c5 312 10 441 21 493 23 112 69 238 135 372 110 221 203
354 345 494 220 218 604 372 951 383 79 2 112 7 117 17 9 16 39 150 84 372 19
94 39 185 45 203 7 24 6 46 -6 91 -46 178 8 407 120 511 65 60 97 72 182 68
61 -2 78 -7 114 -32z m-1010 -34 c42 -42 41 -106 -2 -155 l-30 -35 3 -492 3
-493 -30 -12 c-16 -7 -34 -13 -40 -14 -7 0 -9 173 -7 505 l4 505 -30 34 c-51
59 -51 106 1 164 31 34 90 30 128 -7z m-704 -33 c-3 -8 -6 -5 -6 6 -1 11 2 17
5 13 3 -3 4 -12 1 -19z m-2150 -195 c-2 -21 -4 -6 -4 32 0 39 2 55 4 38 2 -18
2 -50 0 -70z m2150 35 c-2 -13 -4 -3 -4 22 0 25 2 35 4 23 2 -13 2 -33 0 -45z
m-2642 -89 c44 -39 48 -87 10 -144 l-26 -37 1 -404 0 -403 -37 13 -38 13 -3
393 -2 392 -30 28 c-36 34 -46 71 -29 111 14 35 62 69 96 69 12 0 38 -14 58
-31z m492 -81 c-3 -8 -6 -5 -6 6 -1 11 2 17 5 13 3 -3 4 -12 1 -19z m-909 -14
c28 -19 29 -67 2 -94 -26 -26 -48 -25 -77 2 -60 56 7 140 75 92z m2943 -36 c5
-156 3 -448 -3 -448 -5 0 -8 -13 -8 -30 0 -16 3 -30 8 -30 4 0 8 -21 8 -47 1
-27 4 -111 6 -188 4 -104 4 -113 -1 -35 l-7 105 -2 -135 c-1 -90 2 -130 8
-120 7 10 10 -7 10 -57 0 -63 -3 -73 -17 -74 -17 -1 -17 -2 0 -6 19 -5 20 -9
7 -38 -8 -19 -9 -19 -9 3 -1 12 -5 22 -10 22 -6 0 -10 217 -11 560 0 377 3
560 10 560 5 0 11 -19 11 -42z m1038 16 c54 -45 54 -123 0 -176 l-29 -30 0
-263 0 -263 -22 -6 c-61 -16 -58 -32 -58 269 l0 276 -24 26 c-27 29 -39 83
-26 117 13 34 68 76 100 76 16 0 42 -11 59 -26z m-641 -40 c28 -19 29 -57 2
-84 -24 -24 -53 -26 -74 -5 -28 28 -29 55 -5 81 26 28 46 30 77 8z m-272 -79
c8 -18 14 -77 16 -142 2 -79 7 -113 15 -113 9 0 11 -78 11 -312 -1 -176 -4
-280 -8 -238 -5 63 -7 68 -10 30 l-3 -45 -7 40 -7 40 -3 -35 c-2 -26 -4 -30
-9 -15 -3 11 -8 -15 -12 -60 -4 -57 -6 -29 -7 100 -1 128 1 176 9 165 8 -12 9
-11 5 5 -7 30 -17 643 -10 625 4 -8 12 -28 20 -45z m-2436 -2 c23 -20 33 -40
37 -71 5 -37 2 -48 -26 -82 l-31 -39 0 -340 c0 -188 -3 -341 -6 -341 -3 0 -23
13 -43 30 l-38 29 5 316 5 316 -26 27 c-34 37 -40 64 -23 106 15 36 67 76 98
76 10 0 32 -12 48 -27z m-646 -39 c14 -5 16 -41 16 -295 l0 -289 -27 0 c-55 0
-54 -5 -53 298 0 155 0 284 0 287 0 7 45 6 64 -1z m3348 -417 c-3 -369 -3
-372 -25 -390 -61 -50 -57 -78 -57 360 l0 399 43 2 42 1 -3 -372z m-2425 241
c-2 -24 -4 -5 -4 42 0 47 2 66 4 43 2 -24 2 -62 0 -85z m-678 -53 c40 -46 42
-100 6 -143 -24 -28 -25 -36 -25 -150 l0 -120 -42 13 -43 12 0 105 c-1 97 -3
106 -28 139 -32 42 -35 92 -10 129 43 63 95 68 142 15z m3327 1 c48 -48 46
-104 -7 -157 -18 -18 -19 -29 -13 -158 l6 -140 -38 -16 c-30 -12 -39 -13 -46
-3 -4 7 -8 80 -7 161 1 140 -1 150 -21 169 -50 47 -48 100 6 148 46 40 77 39
120 -4z m2724 19 c172 -26 207 -46 190 -106 -6 -21 -5 -31 3 -34 56 -20 69
-28 79 -50 10 -22 9 -29 -9 -46 -34 -34 -131 -48 -391 -55 -133 -4 -239 -10
-236 -13 3 -3 22 -7 42 -7 46 -2 160 -14 189 -20 20 -4 21 -8 13 -30 -6 -14
-10 -39 -10 -55 0 -25 -4 -29 -29 -29 -28 0 -30 2 -33 48 -3 43 -5 47 -30 50
-27 3 -28 2 -28 -47 0 -50 -1 -51 -30 -51 -29 0 -30 1 -30 50 0 43 -3 52 -22
59 -30 11 -38 -2 -38 -61 0 -47 -1 -48 -30 -48 -32 0 -34 4 -30 68 1 23 -3 32
-14 32 -24 0 -30 21 -7 27 43 11 8 21 -58 16 -111 -8 -299 23 -276 45 4 4 196
9 428 12 440 5 473 9 465 48 -3 15 -32 17 -323 18 -437 2 -566 20 -581 79 -13
53 44 83 206 108 72 12 502 6 590 -8z m-5373 -437 c-1 -73 -3 -14 -3 132 0
146 2 205 3 133 2 -73 2 -193 0 -265z m-1117 277 c93 -48 73 -175 -27 -175
-21 0 -43 4 -49 8 -32 21 -46 111 -21 143 13 16 46 38 60 39 4 0 21 -7 37 -15z
m4372 -14 c28 -25 32 -34 30 -72 -4 -59 -29 -84 -86 -84 -56 0 -86 25 -86 72
0 37 27 80 63 100 32 18 43 16 79 -16z m1276 -143 c17 -17 15 -68 -2 -68 -14
0 -26 29 -26 63 0 20 11 22 28 5z m358 -12 c1 0 -1 -27 -3 -58 -5 -56 -7 -58
-33 -58 -27 0 -28 2 -32 58 -2 31 -2 61 0 65 3 6 62 0 68 -7z m744 -14 c0 -30
-16 -52 -37 -52 -20 0 -16 57 5 69 27 16 32 13 32 -17z m-870 -38 l0 -56 -32
6 c-39 8 -45 16 -40 60 3 29 9 36 31 39 14 2 29 5 34 6 4 0 7 -24 7 -55z
m-130 5 c0 -33 -3 -40 -16 -35 -9 3 -18 6 -20 6 -2 0 -4 16 -4 35 0 28 4 35
20 35 17 0 20 -7 20 -41z m709 31 c4 0 7 -20 8 -45 2 -41 0 -45 -21 -45 -20 0
-24 6 -29 42 -6 48 -1 62 20 54 8 -3 18 -6 22 -6z m99 -33 c4 -33 22 -36 23
-4 0 21 1 21 9 2 10 -25 4 -31 -37 -40 -32 -6 -33 -6 -33 28 0 18 3 37 7 41
13 12 28 -1 31 -27z m100 6 c-2 -17 -10 -29 -20 -31 -14 -3 -18 3 -18 27 0 25
4 31 21 31 16 0 20 -5 17 -27z m-825 -134 c103 -15 688 -6 775 11 77 15 92 6
99 -62 5 -42 3 -45 -23 -56 -54 -22 -119 -30 -279 -38 -88 -4 -155 -8 -150
-10 6 -1 41 -6 80 -9 58 -6 67 -9 53 -19 -10 -7 -18 -30 -20 -57 -3 -42 -5
-44 -35 -47 l-33 -3 0 49 c0 36 -4 52 -16 56 -30 11 -34 6 -34 -49 0 -50 -2
-55 -24 -61 -37 -9 -46 2 -46 60 0 49 -2 54 -25 58 -25 5 -25 4 -25 -58 l0
-64 -35 0 -35 0 0 58 c0 61 -6 77 -30 77 -18 0 -28 -26 -29 -82 -1 -41 -3 -43
-31 -43 -22 0 -30 5 -31 18 0 9 -1 33 -2 52 -2 27 -7 36 -23 38 -24 3 -34 -19
-34 -75 0 -28 -4 -33 -24 -33 -27 0 -36 16 -36 69 0 35 2 38 41 47 70 16 45
29 -62 32 -56 1 -111 8 -122 14 -21 12 -21 12 8 19 17 4 194 7 395 8 201 1
383 5 404 9 34 6 68 34 56 45 -3 3 -115 8 -250 11 -501 12 -569 17 -593 38
l-22 19 40 -5 c22 -4 75 -11 118 -17z m-4716 -166 c-2 -16 -4 -3 -4 27 0 30 2
43 4 28 2 -16 2 -40 0 -55z m2200 -20 c-3 -10 -5 -2 -5 17 0 19 2 27 5 18 2
-10 2 -26 0 -35z m2333 -26 c4 -34 2 -47 -7 -47 -24 0 -45 74 -26 94 15 15 28
-3 33 -47z m1055 3 c0 -18 -5 -35 -10 -37 -7 -2 -11 13 -10 37 0 22 4 38 10
37 6 -2 10 -19 10 -37z m-957 24 c19 -6 23 -12 20 -42 -3 -37 -30 -64 -47 -47
-5 6 -12 29 -16 53 -7 45 -3 48 43 36z m720 -6 c7 -7 12 -29 12 -49 0 -29 -4
-38 -22 -42 -31 -8 -40 1 -33 33 4 16 1 38 -5 49 -9 18 -8 21 13 21 12 0 28
-5 35 -12z m130 -40 c3 -36 2 -38 -27 -38 -28 0 -31 3 -31 33 0 40 7 49 35 45
15 -2 21 -12 23 -40z m72 -9 c0 -10 -4 -19 -10 -19 -5 0 -10 12 -10 26 0 14 4
23 10 19 6 -3 10 -15 10 -26z m-3368 14 c-6 -2 -10 -8 -7 -13 5 -8 -32 -46
-39 -39 -2 2 -2 15 1 29 3 20 11 26 31 27 15 1 21 -1 14 -4z m-142 -62 c0 -6
-4 -13 -10 -16 -5 -3 -10 1 -10 9 0 9 5 16 10 16 6 0 10 -4 10 -9z m1 -81
l-16 -24 -3 27 c-2 14 3 33 10 41 21 23 29 -14 9 -44z m-2005 -5 c2 -21 0 -23
-22 -13 -32 15 -33 47 -1 41 15 -3 22 -12 23 -28z m-2356 -189 c109 -31 139
-83 76 -131 -49 -37 -165 -56 -347 -56 -154 0 -256 15 -324 48 -50 24 -62 44
-47 78 14 31 61 52 157 70 97 19 410 13 485 -9z m2746 -94 c8 -5 14 -209 19
-719 l7 -713 -39 0 -40 0 -6 383 c-4 210 -7 534 -7 720 l0 337 28 0 c15 0 32
-4 38 -8z m1075 -295 c1 -166 3 -490 4 -719 l2 -418 -38 0 -38 0 -3 168 c-2
92 -2 415 0 717 l3 550 34 2 35 3 1 -303z m182 146 c4 -87 7 -411 7 -720 l0
-563 -46 0 -46 0 3 713 c2 498 6 714 13 719 6 4 23 8 37 8 l26 0 6 -157z
m-1083 -189 c0 -321 1 -337 20 -361 27 -35 25 -59 -9 -94 -37 -36 -70 -37
-105 -3 -31 32 -34 72 -6 101 19 21 20 37 20 357 l1 336 39 0 40 0 0 -336z
m154 218 l-7 -119 32 -22 c39 -28 39 -54 2 -92 -37 -37 -79 -38 -111 -5 -35
38 -25 106 16 106 11 0 14 25 14 125 l0 125 30 0 31 0 -7 -118z m182 106 c4
-6 8 -328 10 -715 l2 -703 -39 0 -39 0 -1 218 c-1 119 -3 375 -5 567 -2 193
-1 416 3 498 l6 147 28 0 c15 0 31 -5 35 -12z m192 -252 c2 -209 5 -262 17
-279 23 -32 18 -56 -16 -88 -37 -34 -57 -36 -93 -8 -31 25 -35 70 -7 96 16 16
19 42 25 272 3 139 9 257 12 263 3 5 18 8 32 6 l27 -3 3 -259z m186 60 c4
-112 6 -295 5 -408 -2 -198 -2 -205 19 -226 27 -27 28 -63 2 -87 -19 -17 -20
-31 -20 -262 l0 -243 -40 0 -40 0 0 243 c0 230 -1 243 -20 260 -11 9 -20 27
-20 41 0 13 9 35 20 49 19 24 20 40 20 431 l0 406 34 0 33 0 7 -204z m3398
118 c23 -16 53 -45 66 -64 21 -30 23 -45 20 -106 -3 -58 -9 -80 -33 -120 -53
-85 -148 -131 -230 -110 -38 10 -110 80 -134 131 -39 84 -19 186 50 252 47 44
74 53 151 50 56 -2 74 -8 110 -33z m-7641 -34 c12 -7 19 -21 19 -40 0 -40 17
-47 25 -10 5 25 11 30 28 28 17 -2 23 -11 25 -35 4 -41 22 -43 22 -3 0 25 4
30 24 30 40 0 56 -11 56 -36 0 -30 18 -32 22 -1 2 16 11 23 31 25 23 3 27 0
27 -22 0 -16 6 -26 14 -26 8 0 21 -3 30 -6 12 -5 16 0 16 20 0 21 5 26 25 26
14 0 28 0 33 1 4 0 9 -10 12 -22 7 -27 29 -38 31 -15 1 9 2 22 3 29 0 6 14 12
31 12 25 0 30 -4 33 -28 4 -34 25 -31 31 4 3 27 17 39 44 39 13 0 17 -8 17
-35 0 -19 5 -35 10 -35 6 0 10 10 10 23 0 33 20 54 59 62 l34 7 -6 -102 c-6
-95 -16 -130 -38 -130 -5 0 -9 15 -9 33 0 19 -3 37 -7 40 -11 11 -33 -14 -33
-39 0 -28 -25 -54 -51 -54 -13 0 -19 7 -19 24 0 33 -10 57 -21 50 -5 -3 -9
-21 -9 -39 0 -36 -20 -55 -59 -55 -18 0 -21 6 -21 41 0 33 -3 40 -17 37 -13
-2 -19 -14 -21 -41 -3 -35 -5 -37 -38 -37 -27 0 -34 4 -34 19 0 30 -11 51 -26
51 -8 0 -14 -10 -14 -22 -1 -52 -13 -55 -147 -31 -33 5 -45 27 -20 36 9 3 7
10 -5 23 -17 18 -18 17 -18 -15 0 -29 -2 -32 -27 -29 -24 3 -29 9 -37 46 -10
49 -26 56 -26 11 0 -23 -4 -30 -17 -27 -12 2 -20 18 -26 53 -8 47 -1 175 9
175 3 0 14 -5 25 -10z m319 -50 c12 -8 11 -10 -7 -10 -13 0 -23 5 -23 10 0 13
11 13 30 0z m-322 -252 c7 -7 12 -21 12 -32 0 -19 1 -19 13 -2 13 17 18 17
108 2 89 -14 396 -25 415 -14 5 3 31 9 57 12 37 6 48 4 46 -6 -3 -26 1 -39 11
-33 6 3 10 16 10 28 0 20 0 20 15 1 8 -10 15 -22 15 -25 0 -7 -32 -17 -75 -25
-11 -2 -42 -8 -70 -13 -145 -27 -411 -22 -450 10 -6 4 -32 10 -59 14 -66 7
-86 20 -86 54 0 40 15 52 38 29z m7380 -115 c41 -24 57 -28 127 -27 66 0 89 5
130 26 46 23 55 25 120 17 97 -12 122 -18 135 -34 13 -15 8 -17 -80 -34 -183
-35 -582 -29 -682 11 -59 23 -17 45 107 57 44 5 84 9 88 10 5 0 29 -11 55 -26z
m-7378 -68 c0 -36 -13 -47 -24 -19 -11 28 -6 54 9 54 10 0 15 -11 15 -35z
m700 5 c0 -19 -7 -33 -20 -40 -18 -10 -20 -8 -20 24 0 24 5 36 18 39 9 3 18 5
20 6 1 0 2 -12 2 -29z m-612 -28 c3 -30 1 -33 -20 -30 -18 2 -24 10 -26 36 -3
30 -1 33 20 30 18 -2 24 -10 26 -36z m80 22 c17 -5 22 -14 22 -40 0 -27 -4
-34 -19 -34 -38 0 -51 11 -51 46 0 35 6 39 48 28z m462 -12 c0 -26 -21 -50
-52 -57 -21 -5 -27 -3 -32 13 -10 31 -3 46 24 53 46 12 60 10 60 -9z m-227 2
c12 -4 17 -16 17 -40 l0 -34 -50 0 c-47 0 -50 2 -50 25 0 14 -4 25 -10 25 -10
0 -14 -14 -11 -37 1 -9 -13 -13 -44 -13 l-45 0 0 39 0 40 88 0 c48 0 95 -2
105 -5z m117 -29 c0 -27 -4 -35 -17 -35 -10 0 -28 -3 -40 -6 -21 -6 -23 -3
-23 35 l0 41 40 0 c39 0 40 -1 40 -35z m7420 -9 c0 -42 -18 -76 -41 -76 -5 0
-9 16 -9 36 0 21 -4 33 -10 29 -5 -3 -10 -19 -10 -35 0 -33 -3 -36 -51 -45
l-36 -7 1 38 c0 21 -4 39 -11 41 -9 3 -13 -9 -13 -41 l0 -46 -40 0 c-37 0 -40
2 -40 29 0 16 -7 34 -15 41 -13 10 -15 9 -15 -9 0 -11 -6 -21 -12 -21 -9 0 -9
-3 1 -9 23 -15 5 -41 -29 -41 -23 0 -30 4 -30 19 0 30 -11 51 -26 51 -9 0 -14
-11 -14 -30 0 -24 -6 -33 -27 -41 -38 -14 -53 -5 -53 35 0 19 -4 37 -9 41 -14
8 -31 -28 -24 -53 5 -20 1 -22 -36 -22 l-41 0 0 45 c0 56 -16 59 -27 4 -4 -22
-11 -40 -15 -40 -5 1 -19 1 -32 1 -20 0 -24 6 -30 40 -8 50 -26 53 -26 4 0
-34 -1 -35 -32 -32 -30 3 -33 6 -36 41 -2 20 -8 37 -14 37 -6 0 -8 -12 -4 -30
6 -32 1 -35 -38 -20 -23 8 -26 15 -26 56 0 46 0 46 28 39 114 -31 165 -37 352
-42 215 -5 369 9 442 41 48 21 48 20 48 -28z m-7938 -65 c21 -8 24 -14 20 -45
-5 -40 -20 -46 -47 -16 -12 13 -15 27 -11 45 7 28 6 28 38 16z m706 -31 c-1
-39 -18 -58 -18 -21 0 11 -4 23 -10 26 -6 4 -10 -6 -10 -23 0 -17 -6 -32 -15
-36 -12 -4 -15 3 -15 32 0 32 4 40 28 49 41 16 42 16 40 -27z m-607 9 c30 -6
135 -12 234 -14 l180 -3 3 -41 3 -41 -40 0 c-33 0 -40 4 -44 23 -3 22 -4 22
-14 -4 l-11 -26 -104 4 c-56 3 -110 7 -118 9 -8 3 -41 7 -73 9 -32 3 -62 7
-67 10 -9 6 -15 85 -6 85 2 0 28 -5 57 -11z m519 -38 c0 -42 -11 -51 -60 -51
-27 0 -29 2 -27 37 3 38 19 51 65 52 19 1 22 -4 22 -38z m3084 -47 c12 -11 16
-35 16 -87 l0 -72 -85 0 c-54 0 -88 -4 -97 -12 -19 -20 -28 -15 -28 15 0 34 5
40 59 77 24 16 53 44 65 62 23 36 46 41 70 17z m4218 -19 c12 -45 2 -72 -35
-88 -56 -26 -66 -27 -75 -10 -10 16 -22 16 -146 -3 -27 -4 -41 -2 -47 8 -6 9
-9 10 -9 1 0 -15 -38 -17 -60 -3 -9 5 -19 5 -27 -2 -27 -22 -44 -1 -41 49 l3
47 49 2 c28 2 56 -2 63 -8 9 -7 13 -7 13 1 0 8 14 11 37 9 33 -3 39 -7 44 -33
l6 -30 4 35 4 35 74 7 c41 4 77 10 80 13 3 3 16 5 30 3 18 -2 27 -11 33 -33z
m-748 18 c7 -8 12 -9 54 -11 15 -2 22 -8 22 -22 0 -11 5 -20 11 -20 6 0 9 9 6
20 -4 17 0 20 25 20 23 0 29 -4 26 -20 -2 -10 2 -19 7 -19 6 0 9 8 7 19 -3 17
3 19 58 17 34 -1 66 -7 71 -13 6 -7 9 -32 7 -56 l-3 -43 -40 4 c-21 1 -45 10
-51 19 -9 13 -35 17 -119 20 l-107 4 4 -56 3 -56 -52 0 c-60 0 -72 17 -15 22
31 2 36 6 34 23 -2 11 -12 28 -23 38 -14 13 -19 32 -19 67 l0 50 43 0 c24 0
47 -3 51 -7z m-3113 -48 c9 -41 10 -370 2 -472 l-6 -83 -38 0 -39 0 0 279 c0
245 2 282 16 296 25 25 58 15 65 -20z m-3358 -14 c-11 -9 -18 -22 -15 -30 4
-13 -14 -31 -31 -31 -5 0 -7 17 -5 37 2 30 8 38 28 44 35 8 47 -1 23 -20z
m-701 -16 c-4 -35 -7 -39 -21 -30 -6 3 -11 20 -11 36 0 24 4 30 18 27 12 -3
16 -12 14 -33z m79 -13 c5 -24 3 -35 -7 -39 -22 -8 -34 6 -34 43 0 28 4 35 17
32 10 -2 20 -17 24 -36z m97 -25 c3 -35 2 -35 -25 -28 -18 5 -29 15 -31 30 -6
38 4 52 30 42 17 -6 24 -17 26 -44z m442 24 c0 -33 -2 -35 -42 -45 -23 -5 -27
-3 -33 25 -8 36 4 49 48 49 23 0 27 -4 27 -29z m-300 -21 c0 -33 -22 -50 -65
-50 -19 0 -29 6 -33 22 -5 21 -6 21 -13 2 -7 -17 -8 -17 -8 4 -1 36 19 51 72
52 46 0 47 -1 47 -30z m98 2 c5 -33 -15 -52 -54 -52 -33 0 -34 1 -34 41 l0 40
43 -3 c35 -3 43 -7 45 -26z m100 -4 c-3 -30 -6 -33 -40 -36 -37 -3 -38 -3 -38
32 0 35 1 36 41 36 39 0 40 -1 37 -32z m6793 -50 c13 -20 0 -28 -47 -28 -36 0
-44 3 -44 18 0 10 3 22 8 26 10 11 74 -1 83 -16z m619 -11 c0 -16 -7 -18 -57
-15 -42 2 -59 7 -61 18 -2 12 10 15 58 15 52 1 60 -2 60 -18z m-6463 -2 c192
-57 306 -276 247 -476 -19 -66 -42 -104 -111 -188 -61 -74 -83 -117 -83 -160
0 -26 -4 -31 -24 -31 -30 0 -34 11 -28 82 6 76 -1 93 -30 77 -34 -18 -38 -28
-38 -96 l0 -63 -55 0 -54 0 -3 78 c-3 76 -3 77 -30 80 l-28 3 0 -80 c0 -74 -2
-81 -20 -81 -23 0 -40 28 -40 68 0 29 -8 40 -109 164 -72 87 -95 148 -96 248
0 188 93 322 262 374 63 19 177 20 240 1z m6301 -2 c2 -9 -9 -13 -37 -13 -39
0 -50 8 -34 24 11 11 66 2 71 -11z m-238 -3 c0 -6 -30 -10 -70 -10 -40 0 -70
4 -70 10 0 6 30 10 70 10 40 0 70 -4 70 -10z m110 0 c0 -5 -13 -10 -30 -10
-16 0 -30 5 -30 10 0 6 14 10 30 10 17 0 30 -4 30 -10z m-7639 -10 c23 -13 27
-70 5 -70 -22 0 -46 29 -46 56 0 26 11 30 41 14z m709 -21 c0 -22 -5 -32 -20
-36 -11 -3 -20 -9 -20 -14 0 -5 -7 -9 -16 -9 -11 0 -14 9 -12 37 2 30 8 39 28
44 39 11 40 11 40 -22z m-575 0 c87 -13 382 -12 439 1 27 6 50 9 52 7 2 -2 -2
-19 -8 -39 -11 -35 -29 -48 -70 -48 -12 0 -18 8 -19 23 -1 21 -1 21 -8 -3 -9
-31 -33 -36 -187 -39 -105 -1 -145 3 -256 26 -38 7 -49 25 -42 62 5 24 11 31
23 26 9 -4 43 -11 76 -16z m3561 -43 c43 -43 46 -93 9 -142 -22 -29 -25 -42
-25 -118 l0 -86 -40 0 -40 0 0 88 c-1 83 -2 88 -30 116 -48 47 -34 120 29 159
39 24 59 21 97 -17z m3966 -14 c819 6 875 5 895 -15 17 -16 18 -46 18 -395 l0
-377 -260 2 c-143 0 -491 1 -774 2 -283 1 -511 4 -507 9 4 4 297 7 650 7 l642
1 56 27 c53 26 96 69 111 110 4 10 11 16 16 12 16 -9 21 51 18 200 -1 77 1
156 5 175 6 32 6 33 -8 16 -14 -20 -14 -20 -14 0 0 11 -7 30 -16 42 -8 12 -12
28 -8 35 4 6 4 9 -1 5 -4 -4 -27 10 -51 32 -24 22 -57 41 -76 45 -18 3 -363 5
-766 3 -402 -2 -732 0 -732 4 0 18 25 58 39 62 9 3 93 3 188 0 95 -3 354 -4
575 -2z m-7659 -82 c7 -27 -3 -62 -17 -57 -18 6 -20 77 -3 77 8 0 17 -9 20
-20z m702 -17 c-19 -45 -21 -47 -34 -38 -20 12 -12 55 12 65 36 14 38 12 22
-27z m-632 10 c2 -5 7 -20 11 -35 6 -25 4 -28 -19 -28 -22 0 -25 4 -25 35 0
24 5 35 14 35 8 0 17 -3 19 -7z m93 -13 c22 0 19 -66 -3 -72 -32 -8 -43 3 -43
44 0 32 3 39 16 34 9 -3 22 -6 30 -6z m459 -12 c-10 -31 -16 -37 -54 -48 -25
-7 -33 -6 -37 5 -12 30 1 50 36 56 61 11 62 11 55 -13z m-115 -22 c0 -22 -6
-36 -17 -40 -9 -4 -72 -7 -141 -7 -132 0 -142 3 -142 49 0 21 3 22 100 22
l100 0 0 -25 c0 -16 6 -25 15 -25 9 0 15 9 15 24 0 24 13 32 53 35 13 1 17 -7
17 -33z m7816 3 c52 -13 100 -62 109 -112 4 -18 5 -103 3 -188 -3 -154 -3
-156 -32 -193 -53 -69 0 -66 -998 -66 -559 -1 -941 -5 -1003 -12 -193 -20
-233 -11 -276 65 -23 40 -24 49 -23 217 1 137 5 182 17 205 19 37 54 71 87 84
37 14 2057 15 2116 0z m-8316 -105 c13 -34 13 -34 -15 -34 -21 0 -25 5 -25 30
0 38 26 41 40 4z m700 12 c0 -25 -12 -46 -26 -46 -18 0 -19 46 -1 53 21 9 27
7 27 -7z m-620 -25 c19 -36 13 -53 -17 -49 -23 2 -29 8 -31 36 -3 27 0 32 17
32 11 0 25 -9 31 -19z m550 -7 c0 -22 -2 -25 -15 -14 -12 10 -15 10 -15 -3 0
-15 -56 -41 -70 -32 -5 3 -5 17 -1 33 6 22 15 28 47 33 21 3 42 7 47 8 4 0 7
-11 7 -25z m-228 -8 c15 -21 9 -56 -9 -57 -103 -8 -269 3 -284 19 -4 4 -5 19
-2 33 l5 25 141 -4 c89 -3 145 -9 149 -16z m108 -15 c0 -31 -14 -41 -61 -41
-27 0 -29 3 -29 35 0 35 0 35 45 35 43 0 45 -1 45 -29z m-445 -97 c141 -27
441 -21 609 12 l29 6 -5 -56 c-6 -76 -23 -92 -36 -35 l-10 44 -1 -41 c-1 -24
-8 -47 -16 -54 -20 -16 -24 -11 -29 31 -2 19 -4 37 -5 42 0 4 -5 7 -11 7 -5 0
-10 -22 -10 -49 0 -35 -4 -51 -16 -55 -37 -14 -44 -7 -44 44 0 28 -4 50 -10
50 -5 0 -10 -6 -11 -12 0 -7 -1 -31 -2 -53 -2 -39 -3 -40 -39 -43 l-38 -3 0
45 c0 61 -18 59 -22 -1 -2 -33 -7 -47 -16 -45 -16 3 -47 3 -87 0 -29 -3 -30
-1 -33 40 -2 23 -8 42 -14 42 -7 0 -8 -14 -4 -40 l6 -40 -34 0 c-34 0 -35 1
-38 47 -2 29 -8 48 -17 51 -11 4 -13 -5 -8 -47 l6 -51 -27 6 c-41 10 -42 12
-42 60 0 32 -4 44 -12 41 -8 -2 -12 -18 -10 -41 2 -26 -1 -36 -12 -36 -36 0
-46 12 -46 56 0 34 -4 44 -16 44 -14 0 -16 -7 -11 -40 3 -22 2 -40 -2 -40 -19
0 -31 29 -31 77 0 62 -4 61 115 37z m5423 -216 l-3 -181 -547 2 c-555 2 -588
1 -588 -34 0 -34 34 -36 648 -35 334 1 614 -1 624 -5 16 -6 32 -45 22 -55 -9
-9 -671 -11 -722 -2 -26 4 -62 5 -79 1 -18 -3 -33 -3 -33 0 0 4 -17 6 -37 3
-58 -6 -147 -8 -156 -4 -5 2 -77 3 -160 2 -398 -4 -1127 -4 -1127 0 0 3 -21 4
-47 2 -134 -7 -974 -14 -1006 -8 -42 8 -47 24 -16 52 20 18 44 19 633 16 553
-3 615 -2 629 12 21 21 12 44 -21 53 -14 3 -265 4 -559 0 l-533 -5 0 184 0
184 1540 0 1540 0 -2 -182z m-4791 -4 c-3 -19 -7 -36 -8 -37 -2 -1 -14 -7 -25
-14 -27 -14 -34 -8 -34 29 0 22 7 31 33 42 17 8 33 15 35 15 2 1 1 -15 -1 -35z
m-691 -28 c2 -29 0 -36 -15 -36 -27 0 -46 42 -32 69 17 31 43 13 47 -33z m149
13 c44 -5 139 -8 210 -7 l130 3 3 -34 c4 -37 -9 -51 -45 -51 -17 0 -25 8 -32
33 l-9 32 -1 -33 -1 -33 -127 3 -128 3 -6 30 -7 30 -1 -28 c-1 -25 -4 -28 -28
-25 -23 2 -28 7 -26 28 l3 25 -10 -23 c-7 -16 -17 -22 -31 -20 -18 2 -22 10
-23 46 -1 41 0 43 24 37 14 -3 61 -10 105 -16z m455 -18 c0 -25 -5 -41 -15
-44 -16 -7 -29 8 -20 22 3 5 1 12 -5 16 -10 6 -14 -7 -11 -32 1 -8 -9 -13 -24
-13 -22 0 -25 4 -25 34 0 33 3 35 43 44 23 6 45 10 50 11 4 1 7 -17 7 -38z
m85 -128 c-8 -45 -4 -40 -38 -48 -26 -7 -27 -5 -27 29 0 29 5 39 23 46 43 17
50 13 42 -27z m-694 4 c-1 -4 -1 -18 -1 -32 0 -35 -37 -35 -46 0 -9 38 1 56
26 47 12 -4 21 -11 21 -15z m77 -6 c18 -11 12 -75 -8 -78 -24 -5 -37 10 -43
50 -5 33 -4 37 16 37 12 0 28 -4 35 -9z m530 -28 c-2 -27 -8 -39 -20 -41 -14
-3 -18 4 -19 25 l-1 28 -7 -30 c-3 -17 -14 -31 -24 -33 -14 -3 -17 4 -17 37 0
42 6 46 68 50 21 1 23 -3 20 -36z m-108 -20 c0 -43 0 -43 -36 -43 -29 0 -37 4
-42 23 -6 22 -6 22 -12 -3 l-6 -25 -138 3 c-77 1 -143 5 -147 8 -5 3 -9 22 -9
42 l0 37 195 0 195 0 0 -42z m6484 38 c6 -10 -50 -21 -106 -21 -29 0 -36 3
-32 15 5 11 22 15 69 15 35 0 66 -4 69 -9z m-7248 -16 c116 -19 124 -22 124
-51 0 -37 -32 -48 -119 -39 -107 11 -238 11 -366 1 -96 -7 -115 -6 -144 8 -31
17 -32 18 -16 36 21 23 72 41 145 50 97 13 282 10 376 -5z m1764 -60 c0 -6
-65 -11 -170 -13 -148 -2 -170 0 -170 13 0 13 22 15 170 13 105 -2 170 -7 170
-13z m7070 -15 c0 -7 -295 -10 -865 -10 -570 0 -865 3 -865 10 0 7 295 10 865
10 570 0 865 -3 865 -10z m-7875 -73 c-3 -58 -3 -57 -20 -57 -10 0 -15 11 -15
35 0 19 -5 35 -10 35 -7 0 -8 -13 -5 -34 6 -29 3 -36 -15 -46 -12 -6 -23 -10
-25 -8 -2 2 -5 25 -7 53 l-3 49 38 7 c20 3 40 9 44 12 13 14 21 -5 18 -46z
m-694 -5 c3 -23 11 -48 17 -54 10 -10 11 -5 6 22 -3 19 -8 41 -10 48 -3 11 14
12 93 6 54 -4 165 -7 246 -7 126 0 147 -2 143 -14 -3 -8 -6 -34 -6 -58 0 -40
-2 -43 -30 -47 -39 -6 -52 10 -41 50 10 32 6 42 -16 42 -9 0 -13 -15 -13 -49
l0 -49 -102 1 -103 2 -3 45 c-5 66 -22 75 -22 11 0 -53 0 -53 -27 -47 -16 3
-50 10 -76 16 -80 16 -102 31 -105 69 -4 44 4 63 25 59 13 -2 20 -16 24 -46z
m-372 2 l143 5 -7 -47 c-4 -26 -8 -48 -9 -49 -1 -2 -17 -6 -34 -9 -31 -6 -32
-6 -32 30 0 25 -4 36 -15 36 -10 0 -15 -11 -15 -35 0 -33 -2 -35 -35 -35 -33
0 -35 2 -35 34 0 41 -17 57 -25 23 -4 -13 -5 -27 -4 -33 5 -28 -3 -35 -33 -32
-30 3 -33 7 -43 48 l-10 45 -3 -42 c-3 -42 -4 -43 -38 -43 -33 0 -34 1 -34 40
0 29 -4 40 -15 40 -9 0 -15 -6 -14 -12 6 -46 -1 -59 -28 -56 -25 3 -28 8 -31
45 -4 49 -32 70 -32 23 0 -16 5 -32 10 -35 18 -11 2 -23 -24 -18 -33 7 -42 19
-49 69 l-7 41 138 -19 c104 -15 172 -18 281 -14z m231 -9 c0 -37 -28 -75 -55
-75 -12 0 -15 11 -14 48 2 50 11 62 47 62 19 0 22 -5 22 -35z m713 -12 c6 -52
-4 -73 -34 -73 -15 0 -19 8 -19 38 0 20 -3 47 -6 60 -6 19 -3 22 24 22 28 0
30 -3 35 -47z m926 23 c33 -21 -3 -26 -165 -26 -134 0 -175 3 -172 12 3 7 15
16 29 19 29 9 293 4 308 -5z m246 -65 l100 -50 -147 0 c-82 -1 -148 1 -148 4
0 2 10 23 21 45 12 22 19 49 16 59 -4 18 -2 18 27 6 17 -8 76 -36 131 -64z
m5455 26 c0 -39 2 -43 26 -45 14 -1 33 -7 42 -13 13 -8 7 -9 -25 -5 -23 4
-105 6 -181 7 -138 0 -140 0 -136 22 5 22 4 22 -7 1 -12 -24 -64 -31 -76 -10
-10 16 -43 28 -43 16 0 -5 -7 -7 -16 -3 -9 3 -20 0 -25 -8 -8 -12 -11 -12 -19
1 -7 11 -10 11 -10 2 0 -10 -17 -12 -66 -10 -58 3 -67 6 -81 29 -9 15 -13 34
-10 43 6 14 39 16 317 16 l310 0 0 -43z m838 26 c3 -10 -78 -13 -382 -13 -312
0 -386 3 -386 13 0 19 761 18 768 0z m691 8 c12 -8 12 -13 -2 -35 -28 -42 -55
-49 -194 -54 l-133 -5 -1 24 0 24 -11 -22 c-6 -13 -16 -23 -22 -23 -6 0 -5 5
2 12 17 17 15 24 -8 24 -15 0 -18 -5 -13 -25 4 -17 2 -22 -6 -17 -6 4 -12 19
-12 34 -1 17 -3 21 -6 9 -2 -9 -9 -15 -14 -11 -5 3 -12 -2 -15 -10 -3 -9 -10
-16 -16 -16 -5 0 -6 5 -2 11 4 7 -1 7 -16 -1 -18 -10 -24 -9 -36 7 -11 14 -13
15 -8 2 5 -15 -9 -18 -108 -23 -62 -4 -212 -3 -333 2 l-220 9 267 1 c190 2
269 5 274 14 4 6 7 26 6 45 l-1 33 307 0 c169 0 313 -4 321 -9z m-414 -81 c3
-5 1 -10 -4 -10 -6 0 -11 5 -11 10 0 6 2 10 4 10 3 0 8 -4 11 -10z m-6839 -13
c19 -19 -17 -27 -121 -27 -123 0 -145 4 -145 27 0 14 18 15 130 11 72 -3 133
-7 136 -11z m5894 3 c-36 -12 -72 -12 -65 0 3 6 25 10 48 9 36 -1 38 -2 17 -9z
m-3342 -94 c38 -25 72 -89 72 -137 -1 -51 -33 -113 -72 -137 -48 -30 -128 -30
-175 -1 -40 25 -73 91 -73 146 0 126 141 200 248 129z"/>
<path d="M5054 7337 c-3 -8 -4 -18 -3 -23 4 -21 -3 -30 -32 -43 -39 -17 -69
-66 -69 -112 0 -50 40 -91 110 -114 66 -21 92 -42 88 -69 -3 -18 -11 -21 -56
-24 -47 -3 -57 0 -77 22 -29 31 -51 33 -65 5 -18 -32 5 -76 45 -89 18 -6 41
-22 50 -36 22 -34 71 -31 68 4 -2 16 2 22 18 22 35 0 78 38 90 80 10 32 9 44
-7 77 -17 33 -29 42 -99 70 -73 29 -80 34 -80 60 0 23 5 29 38 36 33 8 43 6
76 -17 44 -30 71 -26 71 11 0 30 -50 83 -79 83 -15 0 -20 8 -23 33 -2 27 -8
33 -31 35 -16 2 -29 -2 -33 -11z"/>
<path d="M4540 6306 c0 -8 5 -18 10 -21 17 -11 11 -103 -10 -144 -29 -57 -104
-119 -168 -137 -51 -15 -68 -15 -117 1 -20 6 -20 1 -20 -1219 l0 -1226 51 6
c139 17 274 -98 274 -232 0 -17 -7 -37 -15 -44 -9 -7 -14 -17 -13 -22 2 -4
251 -8 553 -8 434 0 549 3 546 13 -28 90 -14 155 48 217 55 55 118 80 205 80
l61 0 -1 773 c0 424 -2 971 -2 1215 l-2 442 -64 0 c-36 0 -77 5 -93 11 -49 18
-104 62 -136 108 -26 39 -31 55 -32 106 0 33 4 68 9 78 8 16 -21 17 -538 17
-469 0 -546 -2 -546 -14z m1010 -98 c2 -132 120 -253 261 -265 l59 -6 0 -1152
0 -1152 -40 -7 c-157 -25 -264 -122 -277 -251 l-6 -55 -464 0 c-428 0 -465 1
-459 17 9 23 -18 111 -49 158 -49 75 -160 135 -248 135 -26 0 -29 3 -23 23 3
12 6 529 6 1149 l0 1126 43 7 c72 12 155 55 197 103 45 50 84 143 78 184 l-5
28 464 0 463 0 0 -42z"/>
<path d="M4653 6180 c-4 -136 -121 -252 -269 -267 l-54 -6 0 -1123 0 -1123 38
-6 c162 -25 262 -114 280 -248 l7 -56 433 -3 432 -3 0 26 c0 65 31 132 89 190
60 60 125 89 198 89 l33 0 0 1129 0 1128 -52 7 c-148 19 -278 154 -278 287 l0
29 -427 0 -428 0 -2 -50z m677 -6 l117 -7 12 -52 c14 -64 74 -151 132 -193 23
-17 74 -41 115 -54 l74 -23 0 -1062 0 -1062 -40 -11 c-74 -20 -129 -49 -175
-91 -52 -48 -71 -79 -96 -159 l-17 -55 -283 -2 c-156 -1 -321 0 -366 3 l-82 6
-6 31 c-14 63 -68 148 -122 192 -49 40 -143 85 -178 85 -13 0 -15 101 -15 773
-1 1287 -1 1350 13 1359 7 4 21 8 32 8 11 0 47 13 80 29 98 46 174 146 191
247 l6 41 245 2 c135 1 298 -1 363 -5z"/>
<path d="M5042 6028 c-39 -19 -65 -74 -59 -120 7 -56 42 -89 99 -95 58 -7 92
14 114 72 18 49 9 99 -26 130 -23 21 -97 29 -128 13z"/>
<path d="M4905 5681 c-3 -6 -8 -46 -12 -91 l-6 -80 -69 -37 c-195 -102 -296
-321 -243 -525 50 -194 169 -303 401 -368 43 -12 87 -26 96 -31 54 -29 65 -84
22 -118 -59 -47 -153 -36 -266 29 -122 70 -176 73 -215 14 -23 -36 -31 -225
-11 -264 19 -36 109 -87 210 -118 l88 -27 0 -72 c0 -67 2 -73 23 -78 12 -3 96
-4 187 -3 l165 3 3 81 3 81 65 34 c170 86 254 229 254 432 0 249 -148 413
-439 486 -46 11 -90 26 -97 32 -23 19 -17 63 12 90 23 22 34 24 112 24 82 0
92 -2 172 -42 98 -49 137 -53 177 -19 27 23 28 28 31 133 2 74 -1 116 -10 133
-28 53 -129 108 -250 134 -27 6 -28 8 -28 79 0 43 -5 78 -12 85 -15 15 -354
17 -363 3z m295 -145 l0 -84 68 -12 c93 -18 166 -46 202 -80 25 -23 30 -36 30
-72 0 -71 -11 -118 -27 -118 -8 0 -53 19 -99 42 -72 35 -96 42 -164 46 -97 6
-155 -13 -199 -63 -61 -70 -57 -153 9 -194 18 -10 75 -31 128 -45 122 -35 193
-69 257 -128 70 -64 103 -128 116 -228 19 -140 -15 -255 -99 -339 -51 -51
-117 -90 -189 -111 l-43 -13 0 -79 0 -78 -28 0 c-16 0 -63 3 -105 6 l-77 7 0
72 0 71 -99 23 c-55 13 -123 35 -153 50 l-53 27 -3 79 c-3 94 3 125 24 125 9
0 46 -18 82 -40 90 -53 143 -70 216 -70 157 0 253 116 187 223 -29 48 -49 58
-186 101 -66 21 -138 48 -161 61 -59 34 -121 107 -157 183 -29 60 -32 76 -32
157 1 116 28 188 99 264 52 54 139 105 204 117 l32 6 0 82 c0 46 3 86 7 89 3
4 53 7 110 7 l103 0 0 -84z"/>
<path d="M5054 3790 c-31 -12 -74 -68 -74 -96 0 -109 123 -164 191 -87 16 19
29 39 30 46 0 7 2 20 4 29 2 9 -6 35 -17 57 -26 52 -80 73 -134 51z"/>
<path d="M6243 5795 c0 -22 2 -30 4 -17 2 12 2 30 0 40 -3 9 -5 -1 -4 -23z"/>
<path d="M6201 5744 c0 -11 3 -14 6 -6 3 7 2 16 -1 19 -3 4 -6 -2 -5 -13z"/>
<path d="M6222 5330 c0 -19 3 -57 8 -85 6 -40 7 -43 8 -15 0 19 -3 58 -8 85
-6 40 -7 43 -8 15z"/>
<path d="M6083 4520 c0 -25 2 -35 4 -22 2 12 2 32 0 45 -2 12 -4 2 -4 -23z"/>
<path d="M6213 4420 c0 -36 2 -50 4 -32 2 17 2 47 0 65 -2 17 -4 3 -4 -33z"/>
<path d="M6201 3774 c0 -11 3 -14 6 -6 3 7 2 16 -1 19 -3 4 -6 -2 -5 -13z"/>
<path d="M6221 3774 c0 -11 3 -14 6 -6 3 7 2 16 -1 19 -3 4 -6 -2 -5 -13z"/>
<path d="M8928 4190 c-56 -10 -68 -16 -68 -36 0 -12 35 -14 237 -12 209 3 238
5 241 19 2 12 -11 19 -54 28 -64 12 -283 13 -356 1z"/>
<path d="M1305 3118 c-29 -16 -29 -16 -16 -31 9 -11 46 -14 178 -12 159 2 168
4 171 22 2 16 -4 22 -29 27 -53 10 -282 6 -304 -6z"/>
<path d="M8610 2892 c-22 -22 -40 -46 -40 -55 0 -23 49 -77 71 -77 10 0 19 -5
19 -11 0 -7 -12 -9 -36 -5 -42 8 -71 -8 -53 -30 6 -8 20 -14 30 -14 9 0 25 -7
33 -16 15 -14 19 -13 46 14 17 17 30 41 30 55 0 32 -43 79 -65 70 -13 -4 -16
-1 -13 13 3 14 11 18 28 16 35 -4 70 6 70 21 0 10 -61 57 -74 57 -3 0 -23 -17
-46 -38z"/>
<path d="M1282 2580 c0 -14 2 -19 5 -12 2 6 2 18 0 25 -3 6 -5 1 -5 -13z"/>
<path d="M2447 1933 c-4 -3 -7 -17 -7 -30 0 -15 -6 -23 -17 -23 -26 0 -79 -35
-99 -65 -9 -14 -16 -44 -16 -66 1 -52 30 -85 92 -103 44 -13 45 -14 48 -59 3
-46 3 -47 -27 -47 -22 0 -35 7 -47 25 -18 27 -43 32 -62 13 -33 -33 19 -96 87
-105 40 -5 41 -7 41 -44 0 -38 1 -39 35 -39 34 0 35 1 35 40 0 35 3 40 24 40
40 0 90 41 105 88 23 73 -13 121 -103 137 -37 8 -38 8 -32 44 3 20 6 44 6 54
0 24 14 21 46 -8 42 -39 84 -28 84 22 0 27 -72 73 -114 73 -22 0 -27 4 -22 16
11 30 -35 60 -57 37z m-3 -149 c3 -9 6 -27 6 -40 0 -18 -5 -24 -23 -24 -43 0
-60 35 -31 64 20 20 40 20 48 0z m114 -176 c21 -17 14 -48 -14 -58 -40 -16
-44 -13 -44 36 0 42 1 45 23 38 12 -3 28 -11 35 -16z"/>
<path d="M1302 1985 c0 -16 2 -22 5 -12 2 9 2 23 0 30 -3 6 -5 -1 -5 -18z"/>
<path d="M8697 1763 c-4 -3 -7 -15 -7 -25 0 -17 17 -18 354 -18 310 0 355 2
367 16 10 13 10 17 -2 25 -16 10 -702 13 -712 2z"/>
<path d="M7454 1695 c-13 -32 7 -35 221 -35 172 0 214 3 218 14 12 32 -16 36
-225 36 -173 0 -210 -2 -214 -15z"/>
<path d="M8701 1631 c-8 -5 -11 -16 -8 -25 6 -14 38 -16 282 -16 263 0 275 1
275 19 0 10 -7 22 -16 25 -25 10 -517 7 -533 -3z"/>
<path d="M7460 1575 c-7 -8 -10 -22 -6 -30 9 -23 377 -22 397 1 11 14 10 18
-6 30 -28 21 -367 20 -385 -1z"/>
<path d="M1472 1480 c0 -14 2 -19 5 -12 2 6 2 18 0 25 -3 6 -5 1 -5 -13z"/>
<path d="M5007 1465 c-46 -32 -67 -71 -67 -127 0 -59 30 -105 86 -129 124 -55
249 81 185 201 -41 79 -132 103 -204 55z"/>
<path d="M1800 1216 c0 -9 5 -16 10 -16 6 0 10 4 10 9 0 6 -4 13 -10 16 -5 3
-10 -1 -10 -9z"/>
<path d="M1221 1015 c0 -11 4 -29 9 -40 8 -18 9 -18 9 5 0 14 -4 32 -9 40 -8
12 -10 12 -9 -5z"/>
<path d="M1383 990 c0 -25 2 -35 4 -22 2 12 2 32 0 45 -2 12 -4 2 -4 -23z"/>
<path d="M1450 980 c0 -16 5 -30 10 -30 6 0 10 14 10 30 0 17 -4 30 -10 30 -5
0 -10 -13 -10 -30z"/>
<path d="M8227 987 c-9 -24 -10 -23 12 -24 11 -1 22 5 25 14 5 13 4 14 -8 4
-11 -10 -15 -9 -18 6 -3 17 -4 17 -11 0z"/>
<path d="M8313 978 c-2 -16 1 -18 10 -9 7 7 8 14 1 21 -6 6 -10 2 -11 -12z"/>
<path d="M8097 983 c-12 -12 -7 -19 15 -20 13 -1 18 1 13 5 -6 4 -13 11 -16
15 -3 4 -9 4 -12 0z"/>
<path d="M8287 983 c-4 -3 -7 -11 -7 -17 0 -6 5 -5 12 2 6 6 9 14 7 17 -3 3
-9 2 -12 -2z"/>
<path d="M7995 970 c-3 -6 1 -7 9 -4 18 7 21 14 7 14 -6 0 -13 -4 -16 -10z"/>
<path d="M8160 972 c0 -5 7 -9 15 -9 8 0 15 4 15 9 0 4 -7 8 -15 8 -8 0 -15
-4 -15 -8z"/>
<path d="M9641 974 c0 -11 3 -14 6 -6 3 7 2 16 -1 19 -3 4 -6 -2 -5 -13z"/>
<path d="M5035 9540 c-124 -16 -241 -95 -285 -193 -105 -231 217 -455 495
-345 156 62 242 216 188 335 -66 144 -225 225 -398 203z m216 -107 c101 -57
152 -160 114 -232 -65 -128 -216 -182 -373 -136 -99 30 -182 115 -182 187 0
131 126 221 301 215 73 -3 93 -7 140 -34z"/>
<path d="M5080 9368 c-1 -7 -15 -22 -33 -33 -64 -40 -43 -127 35 -142 27 -6
43 -14 43 -23 0 -12 -11 -14 -52 -12 -51 4 -53 3 -53 -21 0 -29 16 -37 71 -37
83 0 122 90 57 130 -18 11 -42 20 -54 20 -32 0 -36 11 -12 37 26 28 34 29 41
3 3 -13 14 -20 30 -20 43 0 41 28 -6 70 -43 40 -67 50 -67 28z"/>
<path d="M6262 9456 c-34 -38 -38 -60 -23 -113 9 -31 7 -33 -34 -58 -24 -14
-63 -48 -86 -75 -38 -45 -46 -50 -84 -50 -32 0 -47 6 -66 26 -37 41 -82 57
-128 44 -47 -12 -70 -37 -78 -84 -13 -79 48 -135 131 -121 23 4 56 9 74 12 17
3 48 2 67 -1 30 -6 36 -12 47 -49 6 -23 22 -58 35 -77 20 -30 21 -37 10 -55
-8 -11 -34 -31 -59 -44 -64 -35 -87 -71 -78 -124 11 -55 48 -87 102 -87 72 0
101 34 112 130 5 45 48 98 58 71 4 -12 140 -17 159 -6 8 5 11 5 7 0 -4 -4 4
-17 18 -27 22 -18 24 -25 19 -62 -6 -36 -3 -47 20 -74 69 -82 195 -28 195 83
0 31 -49 85 -77 85 -10 0 -28 15 -40 33 l-22 32 34 69 c56 111 48 199 -26 290
-34 40 -99 86 -123 86 -11 0 -10 8 7 39 21 38 21 40 4 75 -18 38 -41 52 -106
62 -34 5 -40 3 -69 -30z m108 -51 c17 -20 5 -62 -21 -70 -35 -12 -64 46 -37
73 16 16 43 15 58 -3z m35 -150 c65 -31 122 -91 131 -140 19 -101 -21 -179
-116 -227 -66 -35 -121 -36 -172 -5 -114 70 -144 221 -60 311 24 25 133 86
155 86 5 0 32 -11 62 -25z m-487 -119 c5 -21 -25 -56 -48 -56 -42 0 -54 59
-18 84 19 13 25 14 43 2 11 -7 22 -21 23 -30z m171 -32 c3 -3 0 -9 -5 -14 -15
-15 -114 0 -114 17 0 12 11 13 58 7 31 -3 59 -8 61 -10z m121 -265 c0 -17 -43
-69 -52 -63 -5 3 1 23 13 44 20 35 39 45 39 19z m310 -56 c0 -22 -18 -14 -40
17 -29 41 -14 63 17 24 12 -16 23 -35 23 -41z m-390 -59 c10 -18 11 -30 4 -42
-16 -24 -55 -28 -71 -6 -17 23 -16 39 3 58 23 23 49 19 64 -10z m469 12 c20
-24 10 -70 -17 -74 -46 -7 -67 35 -35 70 19 22 36 23 52 4z"/>
<path d="M6281 9189 c-125 -56 -98 -241 39 -264 82 -14 160 56 160 142 0 37
-6 50 -37 83 -50 52 -104 65 -162 39z m107 -69 c48 -45 36 -111 -24 -130 -79
-27 -142 80 -76 129 35 26 72 26 100 1z"/>
<path d="M3763 9439 c-67 -20 -86 -99 -36 -151 23 -24 25 -30 13 -38 -23 -14
-63 -1 -90 31 -34 40 -81 40 -121 0 -42 -42 -39 -76 12 -127 40 -41 41 -42 25
-72 -22 -43 -76 -56 -76 -18 0 26 -45 56 -86 56 -43 0 -61 -11 -88 -50 -23
-35 -20 -74 10 -109 21 -25 33 -31 66 -31 21 0 48 5 59 11 45 23 99 -47 82
-106 -10 -32 -8 -31 -94 -19 -29 5 -40 1 -67 -24 -28 -26 -32 -37 -32 -79 0
-30 7 -56 18 -69 51 -64 141 -57 178 12 10 19 23 34 29 34 6 0 34 -12 62 -26
l52 -25 -21 -35 c-17 -30 -19 -39 -8 -64 17 -41 43 -61 87 -67 32 -4 45 0 71
22 35 30 52 87 33 116 -6 11 -11 20 -11 21 0 2 28 4 61 6 50 2 66 -1 83 -16
32 -30 61 -35 101 -18 43 18 73 76 57 111 -15 32 24 151 44 134 20 -16 77 -3
102 24 12 13 25 43 28 68 5 35 2 49 -15 71 -32 40 -72 50 -115 29 l-35 -18
-31 64 c-35 75 -34 73 -16 73 7 0 25 12 40 26 28 29 36 87 16 125 -16 28 -67
51 -99 44 -40 -9 -82 -56 -83 -94 -1 -17 -2 -31 -3 -31 -2 0 -19 7 -39 15 -33
14 -49 35 -27 35 15 0 23 73 12 102 -19 50 -86 76 -148 57z m68 -59 c25 -14
24 -41 -2 -74 -34 -43 -19 -59 82 -91 100 -31 103 -30 115 32 7 38 25 56 47
47 30 -11 32 -46 5 -68 -14 -12 -30 -35 -37 -53 -12 -29 -11 -35 12 -65 38
-50 60 -137 55 -225 -3 -68 -6 -78 -32 -99 -26 -23 -27 -27 -16 -54 15 -36 5
-70 -21 -70 -14 0 -21 9 -25 30 -6 28 -27 40 -38 21 -3 -4 -37 -18 -76 -30
-52 -17 -82 -21 -113 -16 -43 7 -84 24 -59 25 25 0 11 16 -32 33 -24 10 -60
36 -80 57 -31 34 -36 46 -36 87 0 58 -3 63 -58 93 -23 13 -41 28 -39 34 2 6
24 9 50 7 36 -2 47 1 47 12 0 8 10 38 22 67 l22 52 -28 50 c-25 45 -27 52 -13
65 13 14 17 13 32 -11 10 -15 15 -37 13 -51 -3 -14 -4 -25 -2 -25 2 0 42 19
89 42 73 37 85 46 85 68 0 14 -7 34 -15 44 -18 24 -19 48 -3 64 15 15 24 15
49 2z m-407 -329 c21 -23 18 -49 -6 -64 -34 -22 -66 41 -36 71 16 16 22 15 42
-7z m816 -81 c6 -12 8 -29 5 -40 -14 -43 -85 -31 -85 15 0 42 61 61 80 25z
m-660 -194 c0 -28 -35 -45 -54 -26 -8 8 -5 16 14 30 33 26 40 25 40 -4z m-89
-48 c8 -15 6 -26 -6 -44 -21 -32 -54 -28 -74 8 -14 24 -14 28 2 46 21 23 63
18 78 -10z m289 -128 c14 -27 4 -57 -20 -65 -27 -8 -40 2 -40 30 0 55 38 77
60 35z"/>
<path d="M3807 9153 c-4 -3 -7 -17 -7 -30 0 -13 -6 -23 -14 -23 -25 0 -66 -41
-66 -66 0 -28 24 -32 58 -8 22 15 22 14 22 -25 0 -37 -3 -41 -24 -41 -23 0
-36 -16 -36 -46 0 -9 11 -14 29 -14 21 0 32 -6 36 -21 9 -27 0 -34 -43 -34
-30 0 -38 -4 -40 -22 -3 -18 4 -24 35 -32 21 -6 44 -20 51 -31 16 -27 36 -25
55 4 9 13 29 26 46 29 25 5 31 12 31 32 0 22 -4 25 -35 25 -32 0 -35 2 -35 31
0 26 3 30 23 27 18 -2 22 2 22 22 0 20 -6 26 -27 28 -25 3 -28 8 -28 39 0 30
3 34 18 28 9 -5 32 -10 50 -13 27 -3 32 -1 32 16 0 11 -14 31 -31 44 -17 13
-46 38 -63 56 -32 32 -47 38 -59 25z"/>
<path d="M3823 8693 c9 -2 25 -2 35 0 9 3 1 5 -18 5 -19 0 -27 -2 -17 -5z"/>
<path d="M6786 9048 c-9 -12 -16 -26 -16 -31 0 -5 52 -63 116 -128 l115 -118
-2 -73 -2 -73 49 -51 c229 -238 422 -445 437 -471 4 -6 3 -33 -3 -60 -14 -59
-1 -88 47 -104 43 -14 77 -1 124 47 18 19 39 34 45 34 22 0 25 -19 8 -45 -26
-39 -23 -99 5 -129 38 -40 70 -34 134 24 l56 51 32 -41 c18 -22 39 -40 46 -40
11 0 11 -4 3 -21 -14 -25 -5 -72 19 -93 9 -9 32 -19 50 -22 31 -6 38 -1 137
98 93 93 104 108 104 139 0 68 -76 102 -137 62 -15 -10 -49 -40 -76 -68 l-48
-50 -40 45 c-21 25 -39 47 -39 50 0 3 31 41 69 84 38 42 73 90 76 107 11 47
-3 88 -36 105 -36 18 -61 12 -110 -26 -33 -26 -38 -27 -52 -13 -14 15 -12 21
28 70 56 68 67 114 34 149 -38 40 -89 34 -147 -20 l-47 -44 -33 42 c-19 23
-127 135 -241 249 l-207 207 -72 0 -72 0 -77 75 c-43 41 -85 75 -94 75 -18 0
-49 -30 -49 -48 0 -7 6 -12 13 -12 8 0 39 -27 70 -59 53 -56 68 -81 49 -81
-13 0 -133 128 -172 183 -38 53 -69 61 -94 25z m469 -236 c6 -4 41 -40 79 -79
l69 -73 -59 -62 c-33 -35 -68 -74 -78 -88 l-17 -25 -91 94 -90 94 7 61 c3 33
11 66 17 73 11 14 146 18 163 5z m385 -387 c38 -45 70 -86 70 -90 0 -4 -9 -18
-20 -32 -17 -21 -21 -23 -26 -9 -3 9 -4 22 -1 30 10 26 -6 26 -40 0 -39 -30
-67 -20 -33 11 25 22 25 46 2 75 l-18 22 -17 -26 c-10 -14 -24 -26 -32 -26
-20 0 -19 29 0 36 22 9 18 27 -10 54 l-25 24 -16 -22 c-8 -12 -19 -22 -25 -22
-17 0 -9 39 11 58 18 16 19 21 6 31 -12 10 -21 9 -46 -4 -18 -9 -34 -14 -37
-12 -3 3 10 25 29 50 l33 44 62 -54 c35 -31 94 -92 133 -138z m270 -26 c0 -5
-27 -39 -60 -74 -33 -35 -60 -67 -60 -71 0 -4 19 -27 42 -52 l42 -46 -45 -38
c-24 -21 -49 -38 -54 -38 -13 0 -65 58 -65 72 0 9 -73 -66 -119 -123 -15 -18
-22 -21 -31 -12 -9 8 4 31 56 95 37 45 70 85 73 88 3 3 50 53 105 112 88 97
116 117 116 87z m110 -206 c0 -10 -14 -36 -31 -58 -29 -38 -217 -235 -225
-235 -28 0 50 110 163 230 77 82 93 93 93 63z m190 -258 c0 -13 -130 -146
-151 -153 -5 -2 -9 3 -9 12 0 16 135 156 151 156 5 0 9 -7 9 -15z"/>
<path d="M4978 8884 c-108 -26 -195 -87 -253 -178 -109 -172 -92 -384 43 -523
65 -68 97 -88 185 -118 164 -55 332 -13 449 113 165 176 151 450 -31 615 -54
48 -109 76 -190 93 -81 17 -129 17 -203 -2z m264 -97 c69 -34 131 -96 166
-166 23 -49 27 -68 27 -146 0 -76 -5 -99 -27 -146 -36 -79 -86 -130 -165 -170
-61 -31 -75 -34 -148 -33 -132 2 -221 45 -294 142 -104 138 -91 315 31 448 73
79 144 106 270 100 69 -3 99 -9 140 -29z"/>
<path d="M5055 8720 c-3 -5 -4 -18 -1 -28 5 -14 -3 -22 -34 -36 -47 -20 -70
-58 -70 -114 0 -52 33 -85 109 -106 33 -9 69 -25 82 -34 18 -16 20 -22 10 -40
-10 -18 -20 -22 -65 -22 -43 0 -56 4 -74 25 -36 41 -70 28 -63 -25 4 -35 27
-57 66 -64 25 -5 35 -13 37 -29 4 -31 58 -38 58 -7 0 11 8 23 18 26 66 21 109
80 98 138 -9 45 -35 67 -119 96 -64 22 -72 28 -75 52 -3 22 2 30 23 38 41 16
61 12 94 -16 33 -28 58 -29 75 -2 15 24 -20 70 -65 84 -26 9 -35 18 -39 40 -4
22 -11 30 -32 32 -14 2 -29 -2 -33 -8z"/>
<path d="M2342 8774 c-114 -40 -234 -135 -302 -239 -38 -59 -44 -75 -53 -156
-13 -110 0 -186 46 -274 91 -172 300 -279 482 -248 146 25 289 130 349 257 97
206 24 476 -161 594 -105 67 -271 97 -361 66z m273 -105 c241 -118 294 -415
110 -608 -135 -141 -322 -167 -485 -65 -149 92 -216 290 -155 464 18 53 101
151 159 188 113 71 252 80 371 21z"/>
<path d="M2417 8593 c-4 -3 -7 -16 -7 -27 0 -15 -13 -27 -41 -40 -49 -22 -79
-67 -79 -119 0 -55 47 -100 126 -122 78 -22 104 -40 104 -70 0 -32 -26 -45
-90 -45 -44 0 -52 3 -62 25 -14 31 -54 43 -74 23 -12 -12 -13 -20 -2 -53 13
-38 25 -49 91 -74 17 -7 27 -18 27 -31 0 -16 7 -20 35 -20 32 0 35 2 35 30 0
25 4 30 23 30 72 0 121 105 82 179 -16 31 -78 66 -137 76 -42 8 -81 40 -76 63
3 18 35 36 79 47 21 5 34 0 62 -24 42 -37 64 -39 79 -6 15 33 -8 66 -65 94
-38 18 -43 25 -39 46 4 23 1 25 -30 25 -19 0 -38 -3 -41 -7z"/>
<path d="M8370 7855 c-14 -15 -24 -38 -24 -60 -2 -31 -7 -38 -43 -56 -39 -19
-95 -69 -126 -113 -13 -18 -15 -18 -38 -3 -37 27 -94 22 -118 -10 -58 -73 -25
-163 60 -163 l37 0 4 -61 c3 -60 2 -62 -25 -71 -47 -17 -72 -91 -47 -139 10
-18 69 -49 95 -49 8 0 28 12 45 26 l31 27 52 -27 c29 -14 57 -26 63 -26 6 0
14 -16 17 -36 9 -55 32 -74 89 -74 59 0 88 24 88 74 0 31 5 37 45 57 25 13 51
29 57 36 8 10 17 7 45 -17 42 -38 81 -39 122 -4 26 21 31 33 31 68 0 47 -20
78 -57 90 -19 6 -23 15 -23 44 0 57 10 82 32 82 28 0 76 27 88 49 21 39 12 88
-22 121 -28 28 -37 31 -71 27 -21 -3 -50 -16 -63 -28 -24 -22 -24 -22 -24 -2
0 26 -89 108 -133 122 -31 10 -32 13 -29 55 3 37 0 46 -23 65 -40 30 -104 29
-135 -4z m95 -65 c0 -20 -6 -26 -27 -28 -25 -3 -28 0 -28 28 0 28 3 31 28 28
21 -2 27 -8 27 -28z m43 -105 c106 -32 172 -127 172 -247 0 -53 -6 -80 -24
-116 -47 -92 -115 -132 -227 -132 -67 0 -80 3 -121 30 -114 76 -150 213 -87
338 33 66 64 94 137 123 58 22 84 23 150 4z m309 -121 c2 -6 -5 -22 -16 -35
l-20 -24 -22 22 c-19 19 -20 24 -9 38 14 17 61 17 67 -1z m-699 -21 c4 -28
-34 -42 -55 -20 -23 23 -9 49 24 45 20 -2 29 -9 31 -25z m652 -308 c0 -15 -7
-26 -20 -30 -41 -13 -70 43 -33 64 25 13 53 -5 53 -34z m-595 15 c8 -27 -12
-52 -39 -48 -21 3 -32 28 -22 54 8 22 54 18 61 -6z m293 -136 c4 -25 -22 -49
-43 -40 -15 5 -21 47 -8 60 14 14 48 1 51 -20z"/>
<path d="M8420 7605 c0 -8 -6 -15 -14 -15 -22 0 -56 -49 -56 -80 0 -34 38 -70
73 -70 20 0 27 -5 27 -19 0 -27 -20 -38 -32 -17 -11 19 -49 21 -66 4 -22 -22
-14 -48 17 -54 17 -4 38 -15 48 -26 17 -19 18 -19 60 29 24 26 43 54 43 61 0
35 -22 53 -92 76 -32 10 -9 33 30 32 31 -1 38 3 40 21 2 16 -5 26 -27 38 -17
8 -31 20 -31 25 0 6 -4 10 -10 10 -5 0 -10 -7 -10 -15z"/>
<path d="M1379 7780 c-9 -5 -22 -23 -29 -39 -16 -40 0 -68 75 -129 81 -65 83
-84 13 -179 -119 -163 -145 -200 -185 -267 -32 -52 -43 -81 -43 -111 0 -56 31
-102 85 -126 41 -18 67 -19 342 -19 221 1 308 5 336 15 65 22 97 68 97 137 0
51 -40 118 -246 407 -49 69 -43 87 51 156 57 41 75 65 75 102 0 62 -3 63 -293
63 -146 0 -269 -5 -278 -10z m471 -90 c-14 -11 -49 -32 -77 -47 l-53 -28 0
-65 0 -66 73 -99 c118 -162 195 -278 202 -306 10 -40 -17 -85 -56 -93 -47 -9
-527 -6 -578 3 -50 10 -71 31 -71 71 0 17 43 90 121 206 66 98 127 186 135
195 9 10 14 39 14 83 0 75 -8 87 -82 126 -20 11 -39 24 -43 30 -4 7 69 10 217
10 l223 0 -25 -20z"/>
<path d="M8911 7781 c-20 -13 -8 -64 25 -106 28 -38 54 -44 74 -20 10 13 9 23
-5 56 -17 36 -57 79 -74 79 -3 0 -12 -4 -20 -9z"/>
<path d="M9046 7545 c-18 -19 -12 -40 37 -116 43 -68 163 -292 227 -425 26
-56 53 -105 59 -109 22 -13 51 5 51 34 0 56 -269 568 -322 614 -25 21 -32 21
-52 2z"/>
<path d="M8478 6953 c-35 -9 -28 -34 27 -91 52 -54 54 -58 48 -99 -6 -42 11
-103 28 -103 5 0 9 -13 9 -28 0 -20 20 -52 70 -113 39 -46 82 -100 96 -121
l26 -36 -95 -149 c-108 -170 -127 -204 -127 -231 0 -24 25 -46 43 -39 8 3 54
70 102 149 105 169 115 183 137 183 17 0 75 -66 88 -100 4 -11 1 -72 -6 -135
-29 -247 -34 -323 -23 -337 14 -17 43 -17 57 0 11 13 25 114 37 263 9 113 16
119 65 64 22 -25 70 -84 107 -132 73 -94 96 -112 142 -110 71 2 120 59 107
124 -3 17 -39 74 -79 125 -76 100 -107 144 -107 154 0 7 235 -37 251 -47 6 -3
21 -3 35 0 21 6 25 12 22 39 -3 35 9 30 -173 71 -60 13 -134 28 -164 31 -61 8
-58 6 -124 92 l-47 62 37 9 c21 6 103 22 183 37 80 15 150 30 157 32 15 6 17
51 4 72 -7 11 -15 12 -38 3 -15 -6 -113 -27 -218 -46 -159 -29 -191 -32 -200
-20 -96 128 -235 295 -253 303 -13 6 -38 11 -55 11 -28 0 -39 8 -71 50 -33 44
-67 73 -78 69 -2 -1 -10 -3 -20 -6z m196 -189 c23 -9 20 -30 -6 -48 -29 -21
-35 -20 -48 5 -19 34 12 59 54 43z m210 -271 c11 -15 64 -80 117 -143 136
-164 269 -331 269 -339 0 -4 -13 -15 -29 -24 l-30 -17 -113 141 c-62 77 -152
189 -200 247 -49 58 -88 114 -88 124 0 16 24 37 44 38 4 0 18 -12 30 -27z
m446 -562 c16 -31 12 -59 -11 -66 -24 -8 -59 19 -59 45 0 39 52 54 70 21z"/>
<path d="M1040 6803 c-90 -12 -136 -28 -202 -72 -156 -102 -238 -257 -238
-447 0 -51 4 -96 10 -99 6 -3 10 -12 10 -20 0 -23 70 -136 113 -182 146 -159
389 -199 575 -95 67 37 155 130 184 192 76 162 76 351 1 480 -58 98 -162 188
-256 220 -53 18 -152 30 -197 23z m182 -100 c72 -28 133 -76 183 -144 56 -77
70 -122 69 -229 0 -132 -36 -221 -125 -308 -152 -150 -403 -144 -552 12 -121
127 -156 320 -85 460 27 53 133 163 181 187 99 51 233 60 329 22z"/>
<path d="M1053 6624 c-7 -3 -13 -18 -13 -33 0 -22 -9 -32 -41 -50 -78 -44
-103 -131 -54 -189 26 -31 50 -43 150 -77 53 -18 60 -23 63 -50 5 -39 -19 -55
-85 -55 -42 0 -57 4 -71 21 -44 55 -55 59 -87 36 -39 -29 15 -108 86 -127 32
-9 39 -15 39 -36 0 -23 3 -25 38 -22 32 3 37 7 40 31 3 21 9 27 27 27 13 0 40
15 59 34 32 30 36 39 36 85 0 44 -5 57 -28 80 -15 15 -52 36 -82 46 -30 9 -69
24 -87 32 -55 25 -55 73 -1 92 53 19 80 13 118 -24 25 -24 42 -34 53 -29 23 8
32 47 17 74 -13 24 -67 60 -92 60 -12 0 -18 10 -20 38 -3 31 -7 37 -28 39 -14
1 -31 -1 -37 -3z"/>
<path d="M9426 6783 c-14 -35 34 -133 65 -133 21 0 38 27 32 50 -23 81 -35
100 -63 100 -17 0 -30 -7 -34 -17z"/>
<path d="M8542 5613 c-12 -2 -27 -13 -33 -24 -15 -30 -8 -334 9 -351 8 -8 49
-14 117 -16 l103 -4 4 -369 c2 -312 5 -371 18 -383 13 -13 67 -16 370 -16 330
-1 355 0 368 17 10 14 12 126 10 565 -3 510 -4 549 -21 565 -16 17 -50 18
-470 19 -249 1 -462 0 -475 -3z m837 -96 c-7 -12 -36 -65 -66 -118 l-54 -96
-329 -7 c-181 -4 -334 -5 -340 -1 -6 4 -10 55 -10 125 l0 120 398 2 c218 2
400 2 405 0 4 -2 2 -13 -4 -25z m55 -682 c-2 -154 -4 -288 -4 -297 0 -17 -21
-18 -305 -18 l-305 0 0 355 0 355 235 0 235 0 27 38 c16 21 46 74 68 118 l40
79 7 -175 c4 -96 5 -301 2 -455z"/>
<path d="M8898 5194 c-5 -4 -8 -16 -8 -26 0 -16 10 -18 100 -18 93 0 100 1
100 20 0 15 -7 20 -27 20 -16 0 -57 3 -93 6 -36 3 -68 3 -72 -2z"/>
<path d="M9220 5191 c-96 -19 -71 -41 46 -41 94 0 94 0 94 25 0 24 -3 25 -52
24 -29 -1 -69 -4 -88 -8z"/>
<path d="M8890 5090 c0 -19 7 -20 100 -20 93 0 100 1 100 20 0 19 -7 20 -100
20 -93 0 -100 -1 -100 -20z"/>
<path d="M9170 5090 c0 -19 7 -20 95 -20 88 0 95 1 95 20 0 19 -7 20 -95 20
-88 0 -95 -1 -95 -20z"/>
<path d="M8897 5033 c-4 -3 -7 -15 -7 -25 0 -16 10 -18 100 -18 l100 0 0 25
c0 25 0 25 -93 25 -52 0 -97 -3 -100 -7z"/>
<path d="M9183 5033 c-7 -2 -13 -13 -13 -24 0 -17 8 -19 95 -19 95 0 95 0 95
25 0 25 -1 25 -82 24 -46 0 -89 -3 -95 -6z"/>
<path d="M8890 4935 l0 -25 100 0 100 0 0 25 0 25 -100 0 -100 0 0 -25z"/>
<path d="M9170 4935 c0 -25 0 -25 95 -25 95 0 95 0 95 25 0 25 0 25 -95 25
-95 0 -95 0 -95 -25z"/>
<path d="M8892 4854 c3 -25 4 -25 101 -27 l97 -2 0 28 0 27 -101 0 -100 0 3
-26z"/>
<path d="M9172 4853 l3 -27 90 3 c95 3 109 8 99 34 -5 14 -22 17 -101 17 l-94
0 3 -27z"/>
<path d="M8890 4776 c0 -14 4 -27 8 -30 5 -3 50 -2 100 1 88 6 92 7 92 29 0
24 -2 24 -100 24 -99 0 -100 0 -100 -24z"/>
<path d="M9170 4769 c0 -28 3 -31 23 -25 12 3 55 6 95 6 70 0 72 1 72 25 0 25
0 25 -95 25 l-95 0 0 -31z"/>
<path d="M9242 4713 c-69 -4 -73 -5 -70 -26 2 -15 10 -22 26 -21 12 0 54 1 93
2 67 2 70 3 67 25 -3 25 -7 25 -116 20z"/>
<path d="M8892 4689 c3 -20 10 -21 101 -23 57 0 98 3 101 9 10 29 -8 35 -106
35 -95 0 -99 -1 -96 -21z"/>
<path d="M9170 4616 l0 -26 95 0 c88 0 95 1 95 20 0 17 -7 20 -42 20 -24 0
-67 3 -95 6 -52 7 -53 6 -53 -20z"/>
<path d="M8892 4613 c3 -15 17 -18 101 -21 92 -3 97 -2 97 18 0 19 -6 20 -101
20 -90 0 -100 -2 -97 -17z"/>
<path d="M920 5559 c-66 -13 -183 -74 -230 -120 -94 -93 -143 -201 -156 -341
-13 -148 35 -277 141 -383 127 -128 301 -180 460 -140 133 34 232 105 306 218
60 93 74 145 74 277 -1 100 -4 124 -27 182 -93 235 -317 356 -568 307z m281
-95 c81 -39 166 -120 202 -194 69 -142 56 -322 -34 -462 l-31 -48 -100 92
c-55 51 -124 115 -154 142 l-55 49 -57 -54 c-241 -231 -242 -232 -261 -215
-59 53 -105 203 -98 316 4 71 35 182 57 204 7 7 55 -35 153 -132 l142 -142 23
22 22 22 -145 147 c-80 81 -145 151 -145 156 0 11 70 62 120 88 69 36 114 45
205 42 76 -2 100 -7 156 -33z m-13 -657 c82 -79 83 -81 64 -99 -33 -34 -146
-68 -223 -68 -76 0 -173 27 -222 62 l-28 20 123 118 123 117 40 -35 c22 -19
77 -71 123 -115z"/>
<path d="M411 5214 c0 -11 3 -14 6 -6 3 7 2 16 -1 19 -3 4 -6 -2 -5 -13z"/>
<path d="M1328 4157 c-13 -14 -29 -32 -36 -41 -11 -14 -48 -16 -287 -16 -262
0 -276 -1 -295 -20 -19 -19 -20 -33 -20 -253 0 -168 3 -236 12 -245 15 -15
1024 -17 1048 -2 13 8 15 53 18 283 3 268 3 273 -19 293 -19 17 -39 19 -210
22 l-189 3 -22 -24z m342 -62 c0 -8 -19 -27 -42 -41 -24 -15 -45 -30 -48 -34
-8 -12 -183 -130 -192 -130 -4 0 -8 47 -8 104 l0 105 38 4 c20 2 85 4 145 5
89 2 107 -1 107 -13z m-367 -164 l2 -94 -44 -34 c-43 -33 -45 -33 -70 -16 -14
9 -100 64 -191 121 -91 58 -169 109 -175 113 -5 6 91 8 233 7 l243 -3 2 -94z
m382 -279 c-4 -11 -86 -13 -460 -11 l-455 2 0 159 c0 88 3 157 8 155 45 -26
223 -134 243 -148 14 -10 64 -40 111 -67 l85 -49 54 32 c30 18 135 86 234 152
l180 119 3 -165 c1 -91 0 -171 -3 -179z"/>
<path d="M683 2564 c-7 -3 -13 -14 -13 -25 0 -18 6 -20 73 -17 64 3 72 5 72
23 0 18 -7 20 -60 22 -33 1 -66 -1 -72 -3z"/>
<path d="M376 2393 c-11 -27 7 -34 75 -31 58 3 64 5 67 26 3 21 0 22 -66 22
-56 0 -71 -3 -76 -17z"/>
<path d="M713 2253 c-18 -7 -16 -40 3 -47 9 -3 35 -6 59 -6 56 0 75 8 75 30 0
12 -10 20 -31 24 -36 7 -88 7 -106 -1z"/>
<path d="M534 2075 c-10 -25 4 -32 69 -39 77 -9 117 0 117 24 0 25 -19 30
-106 30 -56 0 -76 -4 -80 -15z"/>
<path d="M638 1918 c-12 -32 3 -38 103 -38 90 0 99 2 99 19 0 24 -26 31 -121
31 -53 0 -78 -4 -81 -12z"/>
<path d="M547 1763 c-13 -12 -7 -41 9 -47 9 -3 51 -6 94 -6 90 0 110 5 110 30
0 13 -12 19 -52 24 -69 8 -153 8 -161 -1z"/>
<path d="M400 1575 c0 -30 29 -40 101 -33 55 6 75 18 66 42 -5 13 -23 16 -87
16 -79 0 -80 0 -80 -25z"/>
<path d="M723 1584 c-8 -23 10 -36 50 -36 44 0 57 8 57 33 0 16 -7 19 -50 19
-37 0 -52 -4 -57 -16z"/>
<path d="M542 1441 c-8 -5 -12 -17 -10 -27 6 -36 138 -30 138 5 0 11 -7 22
-16 25 -23 9 -97 7 -112 -3z"/>
</g>
</svg>
